<svg xmlns="http://www.w3.org/2000/svg" version="1.1" xmlns:xlink="http://www.w3.org/1999/xlink" xmlns:svgjs="http://svgjs.dev/svgjs" width="1000" height="1125" viewBox="0 0 1000 1125"><g transform="matrix(1,0,0,1,1.7053025658242404e-13,0)"><svg viewBox="0 0 320 360" data-background-color="#111111" preserveAspectRatio="xMidYMid meet" height="1125" width="1000" xmlns="http://www.w3.org/2000/svg" xmlns:xlink="http://www.w3.org/1999/xlink"><g id="tight-bounds" transform="matrix(1,0,0,1,0,0)"><svg viewBox="0 0 320 360" height="360" width="320"><g><svg></svg></g><g><svg viewBox="0 0 320 360" height="360" width="320"><g><path xmlns="http://www.w3.org/2000/svg" d="M20.961 227.22l3.726 4.658-1.863-6.056c-0.466-2.795-3.726 0.466-1.863 1.398M25.153 224.425c1.397 2.329 2.795 4.658 2.795 6.987 0 3.261 2.795 4.658 5.123 5.589-3.261-3.726-5.124-13.974-7.918-12.576M204.017 26.929c7.918 0 15.371-0.932 23.756 0.931 20.495 5.124 37.729 15.371 49.374 29.811l32.606 52.169c1.397 13.042 4.192 27.482 3.726 43.319 3.261 0 2.795-4.658 6.521-5.59-3.726 9.316-5.59 20.961-6.521 34.469-2.329-7.453 0-18.632 0.466-24.687-3.261 5.124-5.124 1.397-5.124-0.932 0.466-3.726-1.397-3.261-2.795-4.658-5.124-4.658-8.384-9.782-12.11-17.7 2.329-6.055 2.795-14.905-4.658-19.563-2.329-1.397-5.124-3.726-6.521-7.453-1.863-5.124-5.124-11.179-4.193-19.097 0.466-2.329-6.987 5.124-11.179 1.863-18.166-12.576-36.332-27.016-58.224-39.127-11.645 0-20.029-4.192-24.221-9.316-3.726-4.658-0.932-10.713 4.658-11.179 3.261 0 6.987-0.932 9.782 0.932 0.466-1.863 2.329-4.192 4.657-4.192M157.904 16.215l0.932 0.466c4.658 0.932 6.987 7.453 12.11 5.124 0 3.261 0.466 6.521-0.466 8.85-1.397 3.726-5.59 3.726-8.85 3.726-31.208-1.863-49.374 11.179-68.471 22.358-5.124 3.261-10.713 5.59-14.906 9.782-20.029 18.632-41.921 35.866-47.045 70.335l-4.192 38.195c-0.466 4.192-5.124 8.384-4.192 13.508l3.26 22.824c-3.261-3.261-5.124 0.932-4.192 2.795 0.466 1.397 2.329 6.055 5.124 1.863 3.726 6.987 7.453 20.495 12.576 26.55 15.837 18.632 36.332 35.4 53.101 52.169 4.192-0.932 7.453-0.932 8.384-3.727 1.397 2.795-1.397 5.59-3.726 6.056 7.453 4.658 15.837 8.85 27.016 9.781 14.44 0.932 27.948 3.261 40.524 6.522 6.521-1.863 13.042-2.795 20.029-3.261 2.329 0 3.726-3.726 6.521-4.658l0.466-4.658c2.795 4.192 2.329-1.397 0.466-4.192 3.261 2.795 4.192 5.124 5.589 6.987 0-1.397 3.726-6.521 3.727-0.466l0.931-6.055c1.397-0.932 1.863 5.124 3.261 0.931 1.397-4.192 4.192-0.932 6.987-2.329-0.932 1.863-0.466 5.59 2.794 3.261l3.727-3.261c2.329 5.59 6.055 3.261 7.918 2.329 20.495-13.042 40.99-28.413 60.553-43.784l-0.466 6.055 2.329-7.453c2.329 2.329 4.192 0.466 5.124-0.931 2.795-4.658 6.521-9.316 12.577-13.508-7.453 20.029-16.303 35.866-27.482 48.908l-4.658 5.59c0 3.261-0.932 7.453-4.658 7.918-1.863 0.466-5.59-0.932-8.384 1.863-1.397 1.863 3.261 5.59-0.466 2.795-3.261-2.329-6.521 0-10.248 0.932-2.795 0.932 1.863 3.726 2.795 5.589 0.932 1.863 1.863 3.726 1.398 6.056l-5.124-5.59c-6.055 3.261-9.782 9.316-14.906 13.974-2.329 1.863-1.397 5.124-1.397 7.918-3.261 0-6.987-0.932-8.85 0.932-1.397 1.863-0.932 4.658-0.932 7.453-4.658-0.466-5.124-7.453-9.315-6.056-4.192 0.932-8.85 1.397-12.577 3.727 2.795 5.59-4.658 2.329-3.726 3.26-6.987-4.192-13.042-7.453-20.495-4.658-15.837-5.124-35.4-2.795-49.84-0.931 0-2.329 0.466-4.658-0.466-5.124-0.932 2.329-3.726 1.397-3.26 1.397-8.85-6.055-17.7-9.782-27.016-14.905-8.384 0.932-16.303-3.261-18.632-5.59-6.521-6.055-13.974-2.795-20.029-4.192-13.042-3.261-17.7-16.769-19.098-26.084-0.932-4.658-4.658-6.521-6.055-6.056-6.055-19.563-15.371-37.263-22.824-55.429-1.863-4.658-1.397-9.316-1.397-14.44 2.329 0.932 4.658 0.466 4.192-2.794-2.329-15.371-7.918-27.016-13.974-38.195 3.261-15.837 3.726-34.469 11.179-48.443 6.521-12.576 18.632-19.098 27.016-29.811 2.795-3.726 2.795-8.85 5.59-12.11 9.316-9.316 18.632-19.098 28.879-27.482 4.658-3.726 10.247 0 17.234-1.397 2.329-8.384 11.645-15.837 20.495-13.508 3.726 0.932 11.179-8.85 13.508-9.782 3.726-1.397 1.863 3.726 1.863 6.987 8.85-6.987 20.961-10.713 32.14-14.906" fill="#ff4136" fill-rule="nonzero" stroke="none" stroke-width="1" stroke-linecap="butt" stroke-linejoin="miter" stroke-miterlimit="10" stroke-dasharray="" stroke-dashoffset="0" font-family="none" font-weight="none" font-size="none" text-anchor="none" style="mix-blend-mode: normal" data-fill-palette-color="tertiary"></path></g><g transform="matrix(1,0,0,1,70.08999999999999,90.08999999999999)"><svg viewBox="0 0 179.82000000000002 179.82000000000002" height="179.82000000000002" width="179.82000000000002"><g><svg viewBox="0 0 179.82000000000002 179.82000000000002" height="179.82000000000002" width="179.82000000000002"><g><svg viewBox="0 0 179.82000000000002 179.82000000000002" height="179.82000000000002" width="179.82000000000002"><g id="textblocktransform"><svg viewBox="0 0 179.82000000000002 179.82000000000002" height="179.82000000000002" width="179.82000000000002" id="textblock"><g><svg viewBox="0 0 179.82000000000002 179.82000000000002" height="179.82000000000002" width="179.82000000000002"><g transform="matrix(1,0,0,1,44.754204373447585,26.33402930351751)"><svg viewBox="0 0 90.31159125310485 127.151941392965" height="127.151941392965" width="90.31159125310485"><g><svg xmlns="http://www.w3.org/2000/svg" xmlns:xlink="http://www.w3.org/1999/xlink" version="1.1" x="0" y="0" viewBox="18.038318634033203 5 63.92386245727539 90" enable-background="new 0 0 100 100" xml:space="preserve" height="127.151941392965" width="90.31159125310485" class="icon-o-0" data-fill-palette-color="accent" id="o-0"><g fill="#ff4136" data-fill-palette-color="accent"><polygon points="27.783,52.526 31.439,56.65 41.281,58.545 43.343,55.492 28.283,48.442  " fill="#ff4136" data-fill-palette-color="accent"></polygon><polygon points="56.649,55.492 58.712,58.545 68.553,56.65 72.209,52.526 71.709,48.442  " fill="#ff4136" data-fill-palette-color="accent"></polygon><path d="M76.372 15.182C69.402 5.833 54.897 5.024 50.607 5h-1.213c-4.29 0.024-18.795 0.833-25.765 10.182-8.232 11.047-4.941 39.136-4.941 39.136l2.712 5.543 1.412 13.64 7.985 10.452v0.491l6.495 8.041L41.162 95h17.676l3.878-2.514 6.487-8.041v-0.491l7.985-10.452 1.412-13.64 2.712-5.543C81.313 54.318 84.603 26.229 76.372 15.182zM61.955 90.829H61.36l-3.489-1.53H52.09L51.352 88.6H48.64l-0.738 0.698h-5.781l-3.49 1.53h-0.595l-3.822-6.463 0.507-4.013 3.862 5.432 2.53-2.712h17.764l2.53 2.712 3.87-5.432 0.5 4.013L61.955 90.829zM73.811 62.795c-3.283 5.551-7.97 12.68-8.533 15.623l-3.791 5.63-2.435-2.387-9.057-0.063-9.048 0.063-2.443 2.387-3.782-5.63c-0.571-2.942-5.25-10.071-8.541-15.623-2.522-4.274-3.91-7.573-3.91-7.573l2.482-10.428 0.294-27.597c6.518-4.243 14.885-4.956 14.885-4.956l3.029 24.544 7.034 1.047 7.034-1.047 3.03-24.544c0 0 8.366 0.714 14.885 4.956l0.293 27.597 2.49 10.428C77.728 55.222 76.332 58.521 73.811 62.795z" fill="#ff4136" data-fill-palette-color="accent"></path></g></svg></g></svg></g><g><path d="M7.628 62.433c-0.138 0.406-0.103 0.863 0.105 1.372 0.208 0.509 0.654 1.034 1.34 1.576 0.687 0.535 1.643 1.011 2.867 1.426v0c1.191 0.405 2.196 0.556 3.014 0.453 0.82-0.109 1.441-0.34 1.862-0.692 0.428-0.35 0.697-0.686 0.806-1.009v0c0.098-0.29 0.099-0.62 0.003-0.99-0.101-0.379-0.226-0.72-0.375-1.022v0c-0.021-0.043-0.059-0.113-0.112-0.21-0.06-0.099-0.079-0.181-0.057-0.246v0c0.028-0.084 0.093-0.169 0.195-0.257v0l1.839-1.67c0.054-0.053 0.133-0.138 0.237-0.254 0.097-0.118 0.182-0.197 0.253-0.237 0.065-0.043 0.139-0.05 0.223-0.021v0c0.077 0.026 0.155 0.082 0.235 0.166v0c0.479 0.558 0.902 1.319 1.271 2.285 0.373 0.974 0.333 2.128-0.12 3.461v0c-0.357 1.05-1.088 1.922-2.193 2.617-1.11 0.686-2.439 1.089-3.989 1.209-1.549 0.12-3.136-0.096-4.758-0.647v0c-1.61-0.547-2.968-1.317-4.075-2.311-1.1-0.991-1.863-2.044-2.288-3.159-0.432-1.117-0.492-2.136-0.179-3.056v0c0.387-1.14 0.938-1.98 1.653-2.52 0.715-0.54 1.34-0.888 1.874-1.044v0c0.118-0.032 0.229-0.062 0.333-0.092 0.097-0.032 0.187-0.033 0.271-0.005v0c0.097 0.033 0.195 0.167 0.295 0.402v0c0.328 0.938 0.653 1.641 0.975 2.109v0c0.158 0.233 0.27 0.422 0.335 0.567 0.07 0.153 0.087 0.284 0.05 0.394v0c-0.039 0.116-0.164 0.217-0.373 0.304v0c-0.49 0.214-0.842 0.386-1.058 0.513-0.218 0.134-0.371 0.33-0.459 0.588z" fill="#ffffff" data-fill-palette-color="primary"></path><path d="M13.811 40.567c0.93-1.424 2.037-2.224 3.323-2.4 1.285-0.176 2.551 0 3.797 0.53 1.252 0.533 2.581 1.259 3.988 2.179v0c1.139 0.744 2.2 1.681 3.184 2.811 0.978 1.126 1.648 2.315 2.009 3.566 0.361 1.251 0.201 2.398-0.48 3.44v0c-1.328 2.033-3.068 2.826-5.221 2.378-2.155-0.457-4.215-1.327-6.18-2.61v0c-1.891-1.235-3.239-2.485-4.045-3.751-0.8-1.262-1.185-2.415-1.153-3.458 0.035-1.049 0.295-1.944 0.778-2.685zM24.096 47.321c0.253-0.387 0.225-0.811-0.082-1.272-0.304-0.467-0.756-0.896-1.354-1.286v0c-0.569-0.372-1.125-0.609-1.668-0.712-0.546-0.097-0.916 0.003-1.109 0.299v0c-0.234 0.359-0.164 0.786 0.21 1.283 0.374 0.496 0.846 0.931 1.416 1.302v0c0.587 0.383 1.102 0.639 1.547 0.767 0.445 0.128 0.791 0.001 1.04-0.381z" fill="#ffffff" data-fill-palette-color="primary"></path><path d="M28.844 25.564c0.365 0.295 0.934 0.648 1.706 1.059 0.777 0.406 1.474 0.746 2.092 1.019v0c0.448 0.152 1.122 0.439 2.023 0.864 0.901 0.424 1.588 0.778 2.059 1.061v0c0.256 0.138 0.587 0.301 0.994 0.488v0l0.895 0.438 1.19 0.56c-0.264-1.06-0.459-1.828-0.585-2.304v0l-0.923-3.593-0.637-2.489c-0.358-1.312-0.578-2.171-0.661-2.577v0c-0.187-0.712-0.335-1.4-0.443-2.062-0.103-0.668-0.098-1.051 0.015-1.149v0c0.103-0.089 0.228-0.049 0.375 0.12v0c0.134 0.154 0.282 0.386 0.443 0.696v0l0.339 0.544c0.252 0.394 1.569 1.958 3.949 4.692v0c0.523 0.6 1.141 1.347 1.855 2.24 0.715 0.884 1.183 1.478 1.403 1.782v0c0.265 0.356 0.683 0.862 1.254 1.519v0l1.644 1.842 0.087 0.1c0.134 0.154 0.151 0.252 0.052 0.293v0l-0.038 0.033c-0.067 0.058-0.137 0.128-0.21 0.21-0.069 0.087-0.149 0.17-0.242 0.251v0c-0.065 0.029-0.13 0.027-0.194-0.006-0.06-0.038-0.146-0.121-0.258-0.25v0l-0.985-1.131c-1.139-1.308-1.796-2.089-1.971-2.342v0c-0.211-0.294-0.618-0.819-1.221-1.574-0.608-0.76-1.106-1.364-1.495-1.81v0c-0.113-0.109-0.418-0.475-0.915-1.098v0l-0.587-0.706-1.174-1.426c0.024 0.204 0.066 0.407 0.124 0.609v0c0.064 0.332 0.151 0.676 0.261 1.03v0l0.143 0.552c0.146 0.613 0.325 1.327 0.538 2.142 0.218 0.82 0.396 1.517 0.535 2.091v0c0.171 0.663 0.397 1.512 0.677 2.549 0.276 1.032 0.502 1.84 0.678 2.426v0c0.35 1.075 0.499 1.635 0.448 1.68v0c-0.041 0.036-0.156 0.023-0.344-0.038-0.189-0.061-0.314-0.101-0.375-0.12v0c-0.208-0.063-0.608-0.237-1.201-0.525-0.587-0.291-1.09-0.558-1.506-0.798v0c-0.278-0.164-1.176-0.523-2.696-1.076v0c-1.23-0.48-1.868-0.737-1.913-0.769v0c-0.352-0.145-0.899-0.421-1.642-0.83v0c-0.42-0.203-0.773-0.391-1.06-0.565v0l0.698 0.88 1.1 1.342 3.258 3.819 2.589 3.022c0.103 0.118 0.134 0.217 0.095 0.296-0.044 0.084-0.112 0.161-0.204 0.231-0.101 0.07-0.178 0.128-0.229 0.173v0l-0.403 0.391c-0.209 0.227-0.364 0.385-0.466 0.474v0c-0.19 0.165-0.338 0.222-0.446 0.172-0.107-0.06-0.268-0.231-0.486-0.511v0c-0.371-0.426-0.731-0.824-1.081-1.196v0l-2.095-2.329c-0.313-0.359-0.628-0.747-0.946-1.165-0.314-0.412-0.597-0.779-0.85-1.1v0c-0.742-0.977-1.274-1.65-1.596-2.02v0l-3.116-3.658-0.92-1.025c-0.389-0.446-0.581-0.73-0.578-0.85v0c0.01-0.072 0.04-0.13 0.092-0.175v0c0.036-0.031 0.104-0.068 0.203-0.109 0.099-0.041 0.201-0.121 0.306-0.239v0c0.104-0.109 0.259-0.252 0.463-0.43v0c0.246-0.214 0.437-0.358 0.573-0.431v0c0.149-0.067 0.314-0.048 0.495 0.056 0.181 0.104 0.37 0.233 0.566 0.386 0.202 0.149 0.36 0.264 0.475 0.344z" fill="#ffffff" data-fill-palette-color="primary"></path><path d="M49.046 10.672c0.134 0.353 0.551 1.221 1.25 2.606v0c0.224 0.42 0.762 1.502 1.614 3.244v0c0.82 1.683 1.326 2.704 1.518 3.064v0c0.464 0.87 1.066 1.964 1.806 3.28 0.737 1.31 1.188 2.084 1.353 2.32v0c0.06 0.084 0.122 0.185 0.186 0.306v0c0.058 0.108 0.08 0.193 0.066 0.254-0.01 0.067-0.042 0.146-0.095 0.235v0c-0.058 0.108-0.273 0.261-0.645 0.46v0c-0.06 0.032-0.156 0.083-0.288 0.153-0.126 0.067-0.212 0.094-0.258 0.08-0.046-0.014-0.095-0.069-0.146-0.165v0l-0.357-0.735-1.524-2.968-2.475-4.751c-0.24-0.45-0.754-1.487-1.542-3.109v0c-0.19-0.385-0.495-1.008-0.916-1.87-0.424-0.868-0.692-1.369-0.802-1.504v0l-0.267-0.458c-0.208-0.39-0.192-0.649 0.048-0.777v0l0.838-0.424c0.15-0.08 0.281-0.015 0.393 0.195v0c0.042 0.078 0.082 0.168 0.121 0.271 0.033 0.106 0.074 0.203 0.122 0.293z" fill="#ffffff" data-fill-palette-color="primary"></path><path d="M65.66 7.756c-0.41 0.125-0.761 0.42-1.054 0.886-0.292 0.466-0.459 1.135-0.499 2.007-0.034 0.871 0.137 1.924 0.513 3.16v0c0.366 1.204 0.829 2.108 1.389 2.713 0.567 0.603 1.117 0.972 1.649 1.109 0.534 0.143 0.964 0.166 1.289 0.067v0c0.293-0.089 0.562-0.281 0.806-0.575 0.249-0.303 0.453-0.603 0.612-0.901v0c0.023-0.042 0.058-0.114 0.105-0.213 0.046-0.106 0.101-0.169 0.167-0.189v0c0.085-0.026 0.192-0.023 0.322 0.008v0l2.43 0.52c0.075 0.013 0.19 0.028 0.344 0.045 0.152 0.011 0.266 0.033 0.34 0.067 0.072 0.028 0.121 0.084 0.147 0.169v0c0.024 0.078 0.024 0.174 0.002 0.287v0c-0.174 0.714-0.546 1.502-1.115 2.365-0.574 0.871-1.535 1.511-2.882 1.921v0c-1.061 0.322-2.196 0.237-3.405-0.256-1.204-0.501-2.307-1.346-3.308-2.535-1.001-1.189-1.751-2.603-2.249-4.243v0c-0.494-1.627-0.66-3.18-0.498-4.658 0.164-1.472 0.575-2.705 1.232-3.701 0.655-1.002 1.448-1.645 2.379-1.928v0c1.152-0.35 2.156-0.392 3.011-0.126 0.856 0.266 1.503 0.571 1.941 0.914v0c0.095 0.078 0.184 0.15 0.269 0.217 0.082 0.06 0.136 0.133 0.162 0.217v0c0.03 0.098-0.022 0.255-0.155 0.474v0c-0.57 0.813-0.952 1.487-1.145 2.022v0c-0.097 0.264-0.186 0.465-0.265 0.603-0.084 0.146-0.181 0.236-0.291 0.27v0c-0.117 0.036-0.272-0.006-0.465-0.126v0c-0.46-0.273-0.804-0.459-1.034-0.56-0.236-0.099-0.484-0.109-0.744-0.03z" fill="#ffffff" data-fill-palette-color="primary"></path><path d="M86.957 0.008c1.618-0.06 2.962 0.209 4.032 0.809 1.064 0.593 1.898 1.168 2.505 1.724v0c0.071 0.065 0.107 0.142 0.111 0.231v0c0.002 0.048-0.02 0.113-0.064 0.196-0.038 0.076-0.063 0.132-0.076 0.166v0c-0.084 0.119-0.219 0.332-0.405 0.638-0.186 0.306-0.334 0.53-0.444 0.67v0c-0.052 0.07-0.104 0.143-0.156 0.221-0.058 0.077-0.107 0.133-0.146 0.168-0.046 0.036-0.11 0.055-0.192 0.059v0c-0.034 0.001-0.118-0.05-0.251-0.154-0.133-0.104-0.259-0.198-0.378-0.282v0c-0.702-0.566-1.384-1.051-2.045-1.455-0.661-0.397-1.291-0.585-1.89-0.563v0c-0.476 0.018-0.863 0.138-1.16 0.36-0.298 0.222-0.433 0.707-0.406 1.455v0c0.027 0.734 0.321 1.295 0.88 1.682 0.559 0.388 1.298 0.751 2.216 1.092v0c0.083 0.031 0.587 0.227 1.512 0.586 0.925 0.353 1.762 1.071 2.511 2.153 0.748 1.075 1.151 2.377 1.207 3.906v0c0.061 1.631-0.508 2.878-1.708 3.739-1.193 0.868-2.866 1.343-5.021 1.423v0c-2.447 0.091-4.021-0.323-4.723-1.243-0.695-0.92-1.06-1.397-1.094-1.429v0c-0.071-0.086-0.108-0.17-0.112-0.251v0c-0.002-0.054 0.062-0.169 0.191-0.344v0c0.206-0.314 0.515-0.69 0.928-1.127v0c0.065-0.071 0.132-0.107 0.2-0.11v0c0.082-0.003 0.176 0.058 0.283 0.184 0.107 0.119 0.195 0.211 0.265 0.276v0c1.044 0.968 2.201 1.429 3.472 1.381v0c0.646-0.024 1.202-0.167 1.669-0.43 0.466-0.269 0.687-0.744 0.661-1.423v0c-0.044-1.169-1.015-2.382-2.913-3.639v0c-0.313-0.192-0.609-0.352-0.885-0.477v0c-0.728-0.368-1.355-0.729-1.879-1.084-0.524-0.355-0.994-0.831-1.411-1.427-0.41-0.597-0.631-1.304-0.661-2.12v0c-0.038-1.02 0.244-1.949 0.845-2.788 0.608-0.84 1.349-1.507 2.223-2.002 0.88-0.489 1.65-0.746 2.309-0.771z" fill="#ffffff" data-fill-palette-color="primary"></path><path d="M126.839 7.728c1.485 0.645 2.58 1.469 3.287 2.473 0.703 0.995 1.207 1.874 1.513 2.637v0c0.035 0.089 0.035 0.175 0 0.256v0c-0.019 0.044-0.067 0.093-0.143 0.149-0.067 0.052-0.114 0.091-0.139 0.117v0c-0.127 0.071-0.341 0.204-0.641 0.401-0.3 0.196-0.53 0.333-0.691 0.412v0c-0.077 0.041-0.155 0.085-0.235 0.131-0.086 0.044-0.154 0.074-0.205 0.089-0.057 0.012-0.123 0.002-0.199-0.03v0c-0.031-0.014-0.084-0.096-0.159-0.248-0.075-0.151-0.148-0.291-0.219-0.417v0c-0.388-0.814-0.793-1.546-1.216-2.196-0.425-0.644-0.912-1.085-1.46-1.324v0c-0.437-0.19-0.837-0.249-1.203-0.177-0.365 0.072-0.696 0.45-0.994 1.136v0c-0.293 0.674-0.271 1.306 0.066 1.898 0.337 0.591 0.845 1.238 1.527 1.941v0c0.061 0.064 0.431 0.458 1.11 1.183 0.682 0.719 1.126 1.727 1.333 3.026 0.21 1.292 0.01 2.641-0.599 4.045v0c-0.65 1.497-1.702 2.375-3.156 2.633-1.451 0.267-3.165-0.028-5.143-0.887v0c-2.246-0.975-3.487-2.029-3.722-3.162-0.229-1.13-0.352-1.717-0.369-1.762v0c-0.027-0.108-0.025-0.2 0.008-0.274v0c0.022-0.05 0.129-0.126 0.321-0.228v0c0.322-0.194 0.763-0.399 1.324-0.615v0c0.089-0.035 0.165-0.039 0.227-0.013v0c0.075 0.033 0.133 0.128 0.176 0.288 0.045 0.153 0.085 0.274 0.12 0.364v0c0.522 1.324 1.367 2.24 2.534 2.746v0c0.593 0.257 1.156 0.369 1.69 0.333 0.537-0.041 0.941-0.374 1.212-0.997v0c0.466-1.073 0.114-2.586-1.054-4.54v0c-0.199-0.309-0.397-0.58-0.592-0.813v0c-0.498-0.646-0.906-1.243-1.226-1.789-0.319-0.546-0.537-1.179-0.655-1.898-0.112-0.716-0.005-1.448 0.319-2.197v0c0.406-0.936 1.062-1.652 1.968-2.149 0.912-0.494 1.868-0.776 2.869-0.845 1.005-0.06 1.81 0.041 2.416 0.304z" fill="#ffffff" data-fill-palette-color="primary"></path><path d="M141.052 25.772l1.153 1.008 0.714 0.609c0.61 0.543 1.042 0.918 1.295 1.125v0c1.027 0.839 1.813 1.473 2.359 1.901v0c0.648 0.529 1.149 0.926 1.504 1.19v0l0.485-0.592 0.868-1.095c0.413-0.506 1.281-1.514 2.604-3.025v0l1.169-1.35c0.105-0.107 0.224-0.107 0.356 0.001v0l0.208 0.196c0.04 0.059 0.131 0.146 0.273 0.263v0c0.158 0.129 0.26 0.235 0.307 0.317v0c0.102 0.144 0.114 0.264 0.036 0.359v0l-0.168 0.126c-0.089 0.077-0.252 0.233-0.49 0.469-0.237 0.237-0.597 0.597-1.08 1.081v0c-0.36 0.365-1.125 1.237-2.297 2.616-1.176 1.385-2.086 2.472-2.731 3.262v0c-0.452 0.553-1.264 1.493-2.436 2.819v0l-1.105 1.271-0.669 0.771c-0.159 0.195-0.301 0.395-0.426 0.601v0l-0.073 0.138c-0.065 0.079-0.133 0.098-0.204 0.057-0.062-0.042-0.099-0.067-0.109-0.076v0c-0.153-0.081-0.401-0.262-0.744-0.542v0c-0.105-0.086-0.104-0.195 0.004-0.327v0l2.372-2.87c0.162-0.219 0.34-0.443 0.535-0.67 0.195-0.227 0.367-0.433 0.518-0.618v0l0.677-0.829 1.195-1.462-1.636-1.271c-0.576-0.445-1.347-1.061-2.31-1.849v0l-1.857-1.517c-0.5-0.409-0.881-0.733-1.142-0.973v0c-0.185 0.226-0.333 0.391-0.443 0.494v0c-0.371 0.4-0.713 0.792-1.028 1.177v0l-1.759 2.12c-0.848 1.038-1.376 1.748-1.584 2.131v0c-0.103 0.18-0.169 0.288-0.199 0.325v0c-0.151 0.184-0.295 0.259-0.434 0.225-0.134-0.03-0.256-0.095-0.368-0.195-0.102-0.101-0.171-0.166-0.208-0.197v0c-0.442-0.405-0.986-0.814-1.632-1.228v0c-0.248-0.159-0.342-0.323-0.281-0.494 0.065-0.166 0.198-0.365 0.396-0.598 0.199-0.233 0.348-0.41 0.447-0.53v0l5.546-6.866 4.223-5.087c0.215-0.263 0.38-0.406 0.493-0.427 0.123-0.022 0.251 0.021 0.383 0.128v0l0.422 0.371c0.063 0.052 0.224 0.161 0.482 0.329v0c0.077 0.045 0.195 0.133 0.353 0.262v0l0.501 0.435c0.092 0.102 0.231 0.228 0.415 0.379v0c0.142 0.116 0.195 0.229 0.157 0.339-0.032 0.114-0.092 0.215-0.18 0.301-0.078 0.085-0.135 0.149-0.169 0.191v0c-0.495 0.606-1.161 1.366-1.997 2.282v0l-1.68 1.895z" fill="#ffffff" data-fill-palette-color="primary"></path><path d="M166.034 40.609c0.964 1.401 1.283 2.729 0.958 3.985-0.325 1.256-0.969 2.359-1.932 3.311-0.969 0.956-2.145 1.91-3.53 2.862v0c-1.121 0.771-2.391 1.397-3.809 1.879-1.414 0.477-2.768 0.645-4.063 0.504-1.294-0.141-2.295-0.725-3-1.75v0c-1.377-2-1.449-3.911-0.217-5.733 1.241-1.82 2.828-3.395 4.761-4.726v0c1.86-1.28 3.529-2.053 5.006-2.318 1.472-0.261 2.684-0.179 3.638 0.247 0.957 0.431 1.686 1.011 2.188 1.739zM155.88 47.559c0.262 0.381 0.665 0.517 1.209 0.407 0.547-0.104 1.115-0.359 1.703-0.764v0c0.56-0.386 0.991-0.81 1.292-1.272 0.297-0.468 0.345-0.848 0.144-1.14v0c-0.243-0.353-0.665-0.451-1.266-0.293-0.601 0.158-1.182 0.43-1.743 0.815v0c-0.577 0.397-1.009 0.777-1.296 1.14-0.287 0.363-0.301 0.732-0.043 1.107z" fill="#ffffff" data-fill-palette-color="primary"></path><path d="M176.875 63.635c0.334 1.123 0.218 2.2-0.349 3.23-0.567 1.03-1.682 1.846-3.345 2.448v0c-1.087 0.394-2.035 0.473-2.844 0.238-0.806-0.229-1.444-0.602-1.914-1.119-0.469-0.517-0.789-1.009-0.957-1.476v0c-0.155-0.428-0.466-1.137-0.933-2.126v0c-0.279-0.572-0.491-1.037-0.636-1.397v0c-1.482 0.501-2.489 0.847-3.02 1.04v0c-2.078 0.753-3.196 1.183-3.353 1.29v0c-0.148 0.09-0.299 0.112-0.453 0.066-0.152-0.039-0.272-0.122-0.361-0.249-0.087-0.12-0.128-0.243-0.123-0.368v0c0.001-0.058-0.04-0.199-0.12-0.422v0c-0.174-0.48-0.391-0.98-0.652-1.501v0c-0.125-0.244-0.134-0.429-0.027-0.554 0.104-0.132 0.3-0.25 0.588-0.354v0c0.352-0.127 0.675-0.234 0.969-0.319v0l2.022-0.71 2.847-0.977c3.424-1.132 6.089-2.043 7.995-2.733v0c0.576-0.208 0.919-0.34 1.029-0.394v0c0.34-0.159 0.542-0.251 0.606-0.274v0c0.416-0.151 0.655-0.14 0.718 0.033v0c0.03 0.083 0.08 0.25 0.148 0.5 0.078 0.254 0.197 0.605 0.36 1.052v0c0.046 0.128 0.172 0.455 0.377 0.981 0.209 0.517 0.418 1.064 0.626 1.64v0c0.308 0.851 0.575 1.669 0.802 2.455zM168.949 65.659c0.215 0.595 0.592 1.084 1.129 1.468 0.537 0.384 1.263 0.411 2.177 0.08v0c0.978-0.354 1.644-0.823 1.997-1.407 0.362-0.579 0.477-1.28 0.346-2.1v0c-0.199-1.288-0.445-2.266-0.737-2.934v0c-0.448 0.162-0.787 0.274-1.017 0.336v0c-0.907 0.292-1.564 0.487-1.97 0.583v0c-0.58 0.138-1.215 0.35-1.907 0.636v0l-0.923 0.389 0.339 1.147c0.106 0.453 0.295 1.054 0.566 1.802z" fill="#ffffff" data-fill-palette-color="primary"></path><path d="M17.4 121.414v0c-0.576 0.186-1.155 0.331-1.737 0.433-0.58 0.109-1.159 0.196-1.738 0.263v0c-0.151 0.02-0.394 0.053-0.73 0.097-0.342 0.047-0.72 0.094-1.134 0.141-0.422 0.044-0.858 0.078-1.307 0.102-0.458 0.02-0.881 0.017-1.268-0.008-0.389-0.031-0.724-0.094-1.005-0.189-0.279-0.088-0.45-0.23-0.513-0.424v0c-0.061-0.188-0.023-0.404 0.112-0.647 0.131-0.235 0.318-0.475 0.561-0.718 0.243-0.243 0.526-0.485 0.849-0.725 0.323-0.24 0.641-0.461 0.954-0.663 0.307-0.2 0.59-0.373 0.85-0.522 0.264-0.157 0.463-0.271 0.597-0.343v0c-0.136 0.001-0.353 0.003-0.652 0.007-0.297 0.01-0.637 0.01-1.02-0.002-0.378-0.02-0.766-0.049-1.164-0.085-0.406-0.04-0.785-0.096-1.137-0.168-0.344-0.068-0.642-0.16-0.895-0.278-0.246-0.12-0.399-0.271-0.457-0.453v0c-0.078-0.239-0.042-0.483 0.106-0.731 0.155-0.25 0.374-0.489 0.658-0.717 0.29-0.23 0.625-0.456 1.003-0.679 0.38-0.216 0.761-0.411 1.14-0.584 0.378-0.18 0.734-0.338 1.069-0.474 0.335-0.137 0.6-0.244 0.797-0.323v0c0.445-0.173 0.883-0.343 1.314-0.511 0.432-0.168 0.877-0.327 1.337-0.476v0c0.162-0.052 0.384-0.117 0.666-0.194 0.287-0.086 0.577-0.14 0.87-0.164 0.291-0.03 0.557-0.012 0.799 0.053 0.249 0.062 0.423 0.213 0.522 0.453v0c0.076 0.211 0.047 0.421-0.086 0.628-0.131 0.214-0.328 0.421-0.592 0.621-0.264 0.2-0.57 0.392-0.918 0.576-0.348 0.184-0.688 0.348-1.021 0.491-0.333 0.143-0.64 0.264-0.923 0.363-0.281 0.105-0.491 0.173-0.631 0.205v0l-0.372 0.109c0.131-0.014 0.341-0.028 0.63-0.043 0.288-0.015 0.622-0.023 1-0.023 0.37-0.005 0.752-0.007 1.146-0.007 0.402 0.006 0.77 0.026 1.103 0.062 0.342 0.04 0.632 0.096 0.869 0.168 0.236 0.067 0.38 0.159 0.434 0.278v0c0.059 0.16 0.012 0.346-0.141 0.561-0.152 0.214-0.368 0.43-0.648 0.649-0.277 0.226-0.598 0.451-0.96 0.676-0.359 0.216-0.711 0.42-1.057 0.61-0.346 0.191-0.658 0.352-0.937 0.486-0.285 0.135-0.486 0.232-0.603 0.291v0c0.16-0.037 0.406-0.092 0.741-0.164 0.343-0.068 0.729-0.132 1.159-0.194 0.422-0.065 0.863-0.118 1.322-0.159 0.454-0.033 0.881-0.039 1.281-0.018 0.391 0.016 0.729 0.075 1.011 0.176 0.281 0.095 0.456 0.249 0.525 0.463v0c0.075 0.233 0.056 0.45-0.057 0.651-0.109 0.193-0.267 0.358-0.472 0.496-0.199 0.136-0.418 0.253-0.658 0.353-0.233 0.097-0.431 0.172-0.592 0.224z" fill="#ffffff" data-fill-palette-color="primary"></path><path d="M14.661 130.999v0c-0.173 0.079-0.36 0.112-0.56 0.099v0c-0.197-0.022-0.478-0.156-0.844-0.4-0.363-0.238-0.73-0.519-1.102-0.843-0.375-0.33-0.716-0.653-1.025-0.969-0.305-0.324-0.5-0.58-0.584-0.765v0c-0.056-0.124-0.096-0.285-0.119-0.484-0.017-0.202-0.019-0.41-0.005-0.625 0.008-0.213 0.041-0.419 0.099-0.618 0.053-0.196 0.118-0.349 0.195-0.458v0c0.051-0.068 0.166-0.161 0.343-0.28 0.175-0.125 0.385-0.254 0.631-0.389 0.242-0.14 0.505-0.286 0.787-0.437 0.276-0.148 0.541-0.288 0.796-0.419 0.254-0.131 0.479-0.245 0.674-0.341 0.201-0.099 0.345-0.169 0.432-0.208v0c0.34-0.155 0.736-0.321 1.187-0.496 0.445-0.173 0.904-0.33 1.377-0.471 0.468-0.138 0.934-0.239 1.399-0.301 0.459-0.06 0.878-0.049 1.259 0.031v0c0.109 0.025 0.253 0.113 0.434 0.262 0.18 0.15 0.37 0.336 0.569 0.56 0.199 0.223 0.405 0.47 0.617 0.739 0.21 0.263 0.403 0.523 0.579 0.778 0.176 0.256 0.332 0.491 0.468 0.707 0.135 0.215 0.23 0.381 0.283 0.498v0c0.062 0.136 0.093 0.279 0.094 0.428-0.005 0.152-0.038 0.294-0.097 0.426-0.06 0.132-0.14 0.251-0.241 0.357-0.101 0.106-0.22 0.19-0.356 0.252v0c-0.118 0.054-0.227 0.085-0.328 0.093-0.095 0.006-0.207-0.003-0.337-0.026v0c-0.157-0.033-0.385-0.157-0.685-0.372-0.296-0.224-0.603-0.469-0.919-0.736-0.316-0.267-0.608-0.53-0.875-0.789-0.274-0.256-0.467-0.434-0.579-0.532v0c-0.227 0.059-0.456 0.114-0.687 0.167-0.234 0.062-0.463 0.133-0.687 0.212v0c0.269 0.214 0.551 0.47 0.844 0.77 0.291 0.294 0.51 0.601 0.656 0.924v0c0.293 0.644 0.118 1.112-0.525 1.405v0c-0.155 0.071-0.304 0.105-0.447 0.103-0.146-0.008-0.286-0.038-0.421-0.088-0.132-0.06-0.26-0.136-0.385-0.229-0.124-0.093-0.248-0.182-0.369-0.269v0c-0.287-0.22-0.559-0.463-0.814-0.728-0.264-0.268-0.522-0.539-0.774-0.813v0c-0.08 0.021-0.167 0.043-0.263 0.064-0.095 0.021-0.183 0.05-0.263 0.086v0c-0.13 0.059-0.256 0.128-0.377 0.206-0.115 0.075-0.235 0.148-0.36 0.22v0c0.088 0.094 0.227 0.244 0.418 0.449 0.197 0.202 0.396 0.418 0.597 0.647 0.202 0.229 0.389 0.451 0.561 0.663 0.169 0.222 0.28 0.392 0.333 0.51v0c0.062 0.136 0.093 0.279 0.094 0.428-0.008 0.146-0.041 0.28-0.096 0.403-0.062 0.126-0.144 0.241-0.246 0.347-0.107 0.109-0.226 0.193-0.356 0.252z" fill="#ffffff" data-fill-palette-color="primary"></path><path d="M18.923 138.941v0c-0.217 0.127-0.471 0.158-0.763 0.092-0.294-0.072-0.602-0.199-0.921-0.382-0.318-0.192-0.637-0.427-0.957-0.705-0.32-0.277-0.621-0.562-0.903-0.854-0.278-0.286-0.528-0.565-0.751-0.838-0.216-0.275-0.375-0.498-0.474-0.668v0c-0.096-0.164-0.185-0.349-0.266-0.554-0.077-0.199-0.099-0.391-0.066-0.576v0c0.012-0.101 0.093-0.232 0.244-0.391 0.151-0.159 0.339-0.337 0.564-0.532 0.219-0.191 0.465-0.391 0.737-0.597 0.267-0.204 0.533-0.395 0.799-0.575 0.262-0.185 0.507-0.352 0.735-0.501 0.228-0.149 0.406-0.262 0.535-0.338v0c0.217-0.127 0.482-0.274 0.794-0.441 0.312-0.167 0.653-0.339 1.022-0.517 0.366-0.183 0.74-0.359 1.122-0.527 0.391-0.166 0.767-0.319 1.126-0.459 0.357-0.13 0.689-0.23 0.996-0.3 0.306-0.069 0.56-0.1 0.762-0.091v0c0.331 0.027 0.57 0.166 0.718 0.418v0c0.1 0.17 0.127 0.351 0.082 0.543-0.049 0.186-0.141 0.371-0.279 0.554-0.147 0.18-0.322 0.358-0.527 0.534-0.205 0.175-0.414 0.337-0.626 0.485-0.219 0.152-0.422 0.283-0.609 0.393-0.194 0.114-0.346 0.203-0.458 0.268v0c-0.675 0.396-1.351 0.768-2.029 1.118-0.68 0.359-1.358 0.737-2.033 1.132v0l-0.502 0.294c0.348 0.324 0.712 0.683 1.092 1.075 0.374 0.396 0.681 0.799 0.922 1.21v0c0.086 0.147 0.165 0.302 0.236 0.465 0.072 0.163 0.116 0.319 0.132 0.467 0.01 0.152-0.017 0.294-0.081 0.426-0.067 0.142-0.191 0.266-0.373 0.372z" fill="#ffffff" data-fill-palette-color="primary"></path><path d="M28.244 142.275v0c-0.154 0.113-0.328 0.215-0.522 0.306-0.198 0.086-0.402 0.142-0.61 0.169-0.199 0.028-0.396 0.012-0.591-0.047-0.19-0.063-0.351-0.186-0.484-0.367v0c-0.209-0.285-0.314-0.533-0.316-0.742-0.002-0.21 0.054-0.398 0.167-0.566 0.109-0.173 0.252-0.324 0.428-0.452 0.172-0.134 0.33-0.263 0.476-0.387 0.15-0.118 0.258-0.235 0.324-0.351 0.067-0.116 0.046-0.248-0.063-0.397v0c-0.117-0.159-0.277-0.257-0.48-0.293-0.208-0.042-0.437-0.038-0.688 0.011-0.251 0.049-0.516 0.13-0.797 0.242-0.275 0.108-0.541 0.228-0.8 0.358-0.255 0.136-0.492 0.272-0.712 0.409-0.221 0.136-0.394 0.251-0.52 0.343v0c-0.17 0.125-0.369 0.279-0.597 0.462-0.222 0.18-0.416 0.381-0.583 0.604-0.171 0.227-0.285 0.457-0.34 0.692-0.052 0.24 0.011 0.481 0.188 0.723v0c0.121 0.165 0.256 0.31 0.407 0.435 0.156 0.121 0.316 0.241 0.478 0.358 0.167 0.113 0.327 0.233 0.477 0.358 0.16 0.127 0.299 0.27 0.416 0.43v0c0.137 0.187 0.172 0.396 0.107 0.629-0.056 0.235-0.177 0.42-0.363 0.557v0c-0.258 0.189-0.557 0.281-0.897 0.278-0.342 0.006-0.686-0.05-1.033-0.167-0.343-0.111-0.666-0.271-0.97-0.478-0.298-0.211-0.53-0.43-0.695-0.654v0c-0.426-0.582-0.656-1.172-0.69-1.771-0.034-0.599 0.064-1.173 0.295-1.721 0.232-0.558 0.566-1.081 1.001-1.569 0.43-0.484 0.9-0.912 1.41-1.286v0c0.34-0.249 0.737-0.49 1.192-0.721 0.449-0.228 0.927-0.426 1.435-0.596 0.498-0.171 1.009-0.297 1.533-0.377 0.529-0.084 1.037-0.098 1.525-0.042 0.484 0.05 0.938 0.181 1.363 0.393 0.421 0.206 0.778 0.509 1.071 0.91v0c0.293 0.401 0.438 0.805 0.433 1.213-0.001 0.414-0.093 0.81-0.278 1.191-0.181 0.386-0.429 0.744-0.743 1.075-0.312 0.322-0.631 0.601-0.954 0.838z" fill="#ffffff" data-fill-palette-color="primary"></path><path d="M25.288 151.224v0c-0.41-0.455-0.654-0.954-0.732-1.497-0.073-0.538-0.016-1.089 0.172-1.653 0.183-0.568 0.48-1.134 0.889-1.695 0.405-0.567 0.887-1.103 1.448-1.609v0c0.52-0.469 1.1-0.887 1.741-1.254 0.64-0.367 1.282-0.625 1.925-0.775 0.648-0.154 1.275-0.17 1.881-0.047 0.606 0.113 1.137 0.422 1.592 0.927v0c0.442 0.49 0.682 1.02 0.72 1.59 0.028 0.57-0.078 1.142-0.32 1.717-0.241 0.575-0.584 1.14-1.026 1.696-0.443 0.555-0.924 1.067-1.444 1.536v0c-0.581 0.524-1.184 0.962-1.809 1.316-0.615 0.354-1.227 0.589-1.835 0.707-0.604 0.123-1.181 0.113-1.732-0.031-0.551-0.144-1.041-0.453-1.47-0.928zM31.632 145.735v0c-0.128-0.141-0.292-0.212-0.495-0.213-0.202-0.001-0.424 0.048-0.665 0.146-0.241 0.098-0.489 0.235-0.743 0.41-0.255 0.175-0.498 0.367-0.731 0.576v0c-0.258 0.232-0.502 0.485-0.732 0.757-0.23 0.263-0.417 0.523-0.561 0.78-0.153 0.257-0.247 0.493-0.282 0.708-0.035 0.215 0.011 0.393 0.139 0.535v0c0.146 0.162 0.345 0.215 0.599 0.161 0.248-0.05 0.513-0.152 0.796-0.306 0.277-0.149 0.549-0.326 0.814-0.529 0.266-0.203 0.479-0.377 0.641-0.523v0c0.202-0.182 0.403-0.386 0.602-0.612 0.199-0.226 0.368-0.455 0.505-0.689 0.132-0.229 0.218-0.449 0.258-0.659 0.04-0.21-0.009-0.391-0.145-0.542z" fill="#ffffff" data-fill-palette-color="primary"></path><path d="M38.776 160.772v0c-0.199 0.179-0.4 0.346-0.606 0.502-0.201 0.15-0.396 0.274-0.587 0.37-0.185 0.101-0.365 0.153-0.538 0.157-0.168 0.008-0.314-0.041-0.438-0.147v0c-0.119-0.102-0.15-0.29-0.094-0.565 0.061-0.27 0.181-0.597 0.36-0.982 0.178-0.385 0.397-0.802 0.657-1.251 0.26-0.449 0.532-0.897 0.816-1.343 0.289-0.451 0.577-0.881 0.864-1.289 0.292-0.413 0.546-0.772 0.765-1.078v0c-0.295 0.249-0.625 0.53-0.992 0.842-0.368 0.303-0.75 0.602-1.147 0.898-0.407 0.296-0.81 0.578-1.21 0.845-0.404 0.272-0.782 0.499-1.134 0.679-0.348 0.176-0.66 0.294-0.936 0.354-0.271 0.054-0.478 0.02-0.623-0.105v0c-0.129-0.111-0.183-0.309-0.161-0.595 0.022-0.286 0.092-0.624 0.212-1.015 0.125-0.386 0.284-0.801 0.477-1.244 0.193-0.444 0.396-0.879 0.61-1.306 0.213-0.436 0.421-0.84 0.624-1.212 0.198-0.377 0.37-0.687 0.515-0.929v0c-0.137 0.16-0.291 0.333-0.46 0.519-0.168 0.196-0.288 0.335-0.359 0.418v0c-0.035 0.041-0.147 0.166-0.333 0.373-0.187 0.207-0.417 0.449-0.69 0.726-0.283 0.277-0.591 0.564-0.926 0.859-0.334 0.305-0.668 0.565-1.004 0.778-0.336 0.214-0.652 0.363-0.95 0.449-0.302 0.091-0.555 0.062-0.759-0.087v0c-0.093-0.205-0.122-0.432-0.088-0.681 0.044-0.249 0.125-0.516 0.243-0.8 0.123-0.28 0.273-0.559 0.45-0.837 0.176-0.288 0.355-0.56 0.538-0.815 0.188-0.26 0.365-0.493 0.533-0.699 0.172-0.211 0.313-0.381 0.424-0.51v0c0.195-0.227 0.454-0.502 0.777-0.826 0.323-0.324 0.679-0.65 1.068-0.979 0.39-0.329 0.795-0.639 1.217-0.932 0.426-0.298 0.837-0.536 1.233-0.716 0.401-0.175 0.777-0.279 1.127-0.31 0.35-0.031 0.646 0.057 0.889 0.265v0c0.114 0.097 0.179 0.266 0.197 0.506 0.018 0.24 0.001 0.521-0.051 0.843-0.048 0.317-0.121 0.658-0.219 1.022-0.103 0.36-0.21 0.72-0.323 1.081-0.118 0.356-0.237 0.689-0.358 0.997-0.12 0.318-0.226 0.582-0.316 0.791v0c0.217-0.127 0.473-0.275 0.77-0.442 0.306-0.168 0.623-0.335 0.953-0.5 0.339-0.166 0.687-0.32 1.043-0.462 0.346-0.142 0.678-0.252 0.995-0.33 0.317-0.077 0.604-0.114 0.86-0.108 0.26-0.001 0.465 0.063 0.615 0.191v0c0.268 0.23 0.412 0.528 0.43 0.894 0.017 0.356-0.044 0.746-0.186 1.172-0.141 0.426-0.341 0.868-0.601 1.326-0.259 0.459-0.532 0.897-0.819 1.314-0.291 0.423-0.575 0.806-0.853 1.15-0.268 0.344-0.491 0.619-0.667 0.826v0c-0.071 0.083-0.168 0.196-0.293 0.34-0.124 0.145-0.268 0.307-0.433 0.489-0.16 0.176-0.337 0.361-0.529 0.554-0.193 0.193-0.386 0.382-0.579 0.565z" fill="#ffffff" data-fill-palette-color="primary"></path><path d="M46.666 165.194v0c-0.105 0.159-0.245 0.287-0.421 0.382v0c-0.179 0.086-0.488 0.123-0.928 0.112-0.434-0.008-0.895-0.05-1.382-0.127-0.493-0.08-0.954-0.171-1.382-0.273-0.431-0.112-0.732-0.224-0.903-0.336v0c-0.114-0.075-0.233-0.19-0.359-0.346-0.122-0.161-0.234-0.337-0.337-0.527-0.107-0.184-0.188-0.376-0.245-0.575-0.06-0.194-0.086-0.358-0.079-0.492v0c0.007-0.085 0.054-0.225 0.141-0.42 0.082-0.199 0.19-0.42 0.327-0.664 0.13-0.248 0.275-0.511 0.433-0.79 0.155-0.273 0.305-0.532 0.45-0.779 0.145-0.246 0.275-0.462 0.389-0.647 0.118-0.191 0.202-0.327 0.255-0.407v0c0.205-0.313 0.452-0.663 0.739-1.052 0.284-0.383 0.589-0.761 0.915-1.133 0.322-0.366 0.663-0.7 1.023-1 0.356-0.295 0.717-0.51 1.082-0.644v0c0.105-0.037 0.274-0.04 0.507-0.009 0.232 0.03 0.492 0.087 0.779 0.17 0.287 0.083 0.593 0.182 0.916 0.296 0.318 0.111 0.619 0.228 0.905 0.351 0.286 0.123 0.543 0.239 0.773 0.348 0.229 0.11 0.398 0.2 0.505 0.271v0c0.125 0.082 0.228 0.186 0.308 0.312 0.076 0.132 0.124 0.269 0.144 0.412 0.02 0.143 0.015 0.287-0.014 0.43-0.029 0.144-0.085 0.278-0.167 0.403v0c-0.071 0.108-0.147 0.192-0.227 0.254-0.077 0.055-0.177 0.108-0.299 0.158v0c-0.151 0.056-0.41 0.073-0.778 0.05-0.37-0.031-0.76-0.076-1.17-0.133-0.41-0.058-0.797-0.125-1.161-0.202-0.368-0.071-0.626-0.118-0.774-0.141v0c-0.161 0.171-0.325 0.34-0.491 0.507-0.165 0.177-0.321 0.359-0.469 0.546v0c0.342 0.037 0.717 0.104 1.125 0.202 0.402 0.093 0.752 0.237 1.047 0.431v0c0.591 0.388 0.693 0.878 0.304 1.47v0c-0.093 0.142-0.201 0.25-0.323 0.324-0.128 0.071-0.262 0.121-0.404 0.15-0.143 0.02-0.292 0.024-0.447 0.012-0.155-0.012-0.307-0.022-0.456-0.031v0c-0.361-0.033-0.719-0.094-1.076-0.182-0.367-0.086-0.729-0.178-1.089-0.275v0c-0.056 0.061-0.119 0.125-0.188 0.193-0.069 0.068-0.128 0.14-0.177 0.214v0c-0.078 0.119-0.148 0.244-0.209 0.375-0.058 0.125-0.12 0.251-0.187 0.377v0c0.125 0.033 0.322 0.086 0.592 0.158 0.274 0.066 0.558 0.142 0.851 0.229 0.293 0.087 0.569 0.174 0.828 0.263 0.261 0.098 0.446 0.183 0.553 0.253v0c0.125 0.082 0.228 0.186 0.308 0.312 0.071 0.128 0.115 0.259 0.133 0.393 0.014 0.14 0.007 0.281-0.023 0.424-0.033 0.149-0.089 0.284-0.167 0.403z" fill="#ffffff" data-fill-palette-color="primary"></path><path d="M61.585 163.721v0c-0.103 0.23-0.286 0.398-0.549 0.503-0.257 0.109-0.545 0.178-0.864 0.207-0.312 0.032-0.623 0.035-0.931 0.009-0.306-0.032-0.554-0.069-0.745-0.109v0c-0.391 0.675-0.76 1.352-1.107 2.03-0.357 0.682-0.692 1.375-1.006 2.077v0c-0.169 0.379-0.326 0.756-0.471 1.13-0.145 0.375-0.299 0.745-0.463 1.112v0c-0.072 0.161-0.168 0.335-0.287 0.52-0.117 0.179-0.255 0.337-0.414 0.474-0.152 0.141-0.324 0.243-0.516 0.306-0.196 0.054-0.393 0.037-0.591-0.052v0c-0.236-0.105-0.395-0.258-0.477-0.458-0.085-0.194-0.121-0.404-0.11-0.63 0.005-0.229 0.044-0.457 0.116-0.686 0.063-0.225 0.134-0.424 0.212-0.598v0c0.228-0.561 0.463-1.119 0.703-1.675 0.234-0.558 0.476-1.117 0.726-1.676v0c0.208-0.466 0.415-0.921 0.62-1.366 0.206-0.444 0.413-0.9 0.621-1.365v0c-0.139-0.04-0.275-0.085-0.408-0.137-0.142-0.049-0.282-0.103-0.418-0.165v0c-0.106-0.047-0.243-0.123-0.412-0.228-0.169-0.105-0.322-0.222-0.458-0.35-0.14-0.137-0.245-0.285-0.317-0.443-0.071-0.158-0.07-0.318 0.002-0.48v0c0.122-0.273 0.336-0.468 0.641-0.585 0.309-0.108 0.664-0.162 1.067-0.161 0.402 0.001 0.828 0.038 1.279 0.113 0.457 0.077 0.898 0.174 1.323 0.289 0.422 0.122 0.808 0.242 1.158 0.361 0.34 0.122 0.604 0.225 0.79 0.308v0c0.174 0.078 0.357 0.167 0.55 0.268 0.187 0.098 0.352 0.221 0.496 0.366 0.146 0.14 0.251 0.298 0.313 0.475 0.054 0.18 0.029 0.385-0.073 0.616z" fill="#ffffff" data-fill-palette-color="primary"></path><path d="M60.955 174.919v0c-0.577-0.205-1.029-0.527-1.357-0.968-0.321-0.439-0.533-0.95-0.635-1.535-0.109-0.587-0.118-1.225-0.025-1.914 0.086-0.691 0.256-1.392 0.508-2.104v0c0.234-0.66 0.545-1.304 0.933-1.931 0.388-0.627 0.83-1.16 1.325-1.598 0.497-0.444 1.041-0.757 1.631-0.937 0.587-0.189 1.2-0.17 1.842 0.057v0c0.622 0.22 1.085 0.572 1.39 1.056 0.296 0.488 0.475 1.042 0.536 1.662 0.061 0.621 0.029 1.281-0.096 1.98-0.125 0.699-0.305 1.379-0.539 2.039v0c-0.261 0.737-0.583 1.41-0.964 2.018-0.373 0.604-0.799 1.102-1.277 1.495-0.472 0.395-0.985 0.661-1.538 0.797-0.553 0.136-1.131 0.097-1.734-0.117zM63.921 167.073v0c-0.179-0.064-0.358-0.048-0.537 0.048-0.178 0.096-0.35 0.244-0.515 0.445-0.165 0.201-0.318 0.439-0.459 0.714-0.141 0.275-0.263 0.56-0.368 0.855v0c-0.116 0.327-0.211 0.665-0.284 1.014-0.077 0.341-0.118 0.658-0.121 0.953-0.012 0.299 0.018 0.551 0.089 0.757 0.071 0.206 0.197 0.34 0.376 0.404v0c0.205 0.073 0.406 0.025 0.603-0.144 0.195-0.162 0.379-0.378 0.555-0.648 0.173-0.263 0.328-0.548 0.464-0.852 0.137-0.305 0.242-0.56 0.315-0.766v0c0.091-0.256 0.17-0.531 0.238-0.824 0.068-0.293 0.107-0.576 0.117-0.847 0.007-0.264-0.022-0.498-0.087-0.702-0.065-0.203-0.194-0.339-0.386-0.407z" fill="#ffffff" data-fill-palette-color="primary"></path><path d="M82.058 177.463v0c-0.075 0.257-0.16 0.505-0.253 0.745-0.092 0.233-0.194 0.441-0.305 0.623-0.105 0.183-0.23 0.322-0.376 0.416-0.139 0.095-0.289 0.13-0.451 0.104v0c-0.154-0.025-0.28-0.168-0.375-0.432-0.089-0.262-0.159-0.604-0.209-1.025-0.05-0.421-0.082-0.891-0.096-1.41-0.014-0.519-0.017-1.043-0.009-1.572 0.009-0.536 0.03-1.052 0.061-1.55 0.032-0.505 0.061-0.944 0.086-1.319v0c-0.12 0.367-0.255 0.779-0.404 1.237-0.154 0.451-0.323 0.906-0.506 1.366-0.191 0.465-0.387 0.916-0.587 1.353-0.201 0.443-0.405 0.834-0.61 1.174-0.204 0.333-0.408 0.596-0.612 0.791-0.202 0.188-0.397 0.267-0.585 0.238v0c-0.168-0.027-0.318-0.168-0.449-0.423-0.132-0.255-0.249-0.58-0.352-0.975-0.096-0.394-0.178-0.831-0.246-1.31-0.068-0.479-0.123-0.956-0.165-1.431-0.047-0.483-0.082-0.936-0.104-1.36-0.029-0.425-0.045-0.779-0.048-1.061v0c-0.033 0.208-0.073 0.436-0.119 0.683-0.041 0.255-0.069 0.437-0.087 0.544v0c-0.009 0.054-0.038 0.218-0.088 0.492-0.051 0.274-0.12 0.601-0.208 0.98-0.096 0.384-0.208 0.79-0.338 1.217-0.124 0.435-0.273 0.831-0.447 1.189-0.174 0.358-0.365 0.651-0.574 0.88-0.21 0.235-0.44 0.343-0.692 0.324v0c-0.187-0.126-0.33-0.304-0.432-0.534-0.093-0.235-0.164-0.505-0.212-0.809-0.041-0.303-0.06-0.619-0.056-0.949-0.001-0.338 0.009-0.663 0.032-0.976 0.023-0.32 0.052-0.612 0.087-0.875 0.036-0.27 0.067-0.489 0.094-0.656v0c0.047-0.296 0.123-0.666 0.228-1.111 0.105-0.445 0.238-0.909 0.398-1.393 0.16-0.484 0.342-0.961 0.548-1.432 0.207-0.477 0.432-0.896 0.675-1.256 0.25-0.36 0.516-0.645 0.797-0.855 0.281-0.21 0.58-0.29 0.895-0.239v0c0.148 0.024 0.292 0.133 0.434 0.327 0.141 0.195 0.274 0.443 0.398 0.745 0.125 0.295 0.242 0.624 0.349 0.985 0.101 0.36 0.198 0.724 0.292 1.09 0.087 0.365 0.159 0.711 0.217 1.037 0.064 0.334 0.112 0.614 0.146 0.839v0c0.118-0.222 0.259-0.482 0.423-0.78 0.172-0.303 0.356-0.612 0.55-0.925 0.202-0.319 0.417-0.633 0.646-0.94 0.22-0.302 0.445-0.57 0.675-0.802 0.23-0.232 0.455-0.413 0.675-0.544 0.222-0.137 0.43-0.19 0.625-0.158v0c0.349 0.056 0.627 0.234 0.834 0.535 0.201 0.294 0.353 0.659 0.456 1.095 0.103 0.436 0.164 0.918 0.184 1.445 0.02 0.527 0.017 1.043-0.009 1.548-0.026 0.512-0.068 0.988-0.124 1.427-0.048 0.433-0.094 0.784-0.136 1.053v0c-0.017 0.107-0.041 0.255-0.071 0.443-0.03 0.188-0.067 0.403-0.112 0.643-0.044 0.234-0.098 0.484-0.161 0.75-0.063 0.266-0.129 0.527-0.197 0.784z" fill="#ffffff" data-fill-palette-color="primary"></path><path d="M92.146 177.209v0c-0.005 0.197-0.027 0.438-0.068 0.723-0.041 0.278-0.115 0.545-0.223 0.801-0.108 0.249-0.249 0.46-0.423 0.633-0.174 0.173-0.401 0.256-0.679 0.25v0c-0.374-0.009-0.65-0.151-0.827-0.428-0.177-0.276-0.302-0.602-0.375-0.978-0.073-0.376-0.111-0.761-0.116-1.156-0.005-0.388-0.008-0.698-0.009-0.929v0c-0.73 0.099-1.447 0.187-2.149 0.266v0c-0.026 0.231-0.073 0.515-0.143 0.854-0.076 0.338-0.186 0.662-0.329 0.972-0.143 0.316-0.323 0.584-0.539 0.804-0.223 0.226-0.491 0.336-0.804 0.328v0c-0.238-0.006-0.423-0.095-0.555-0.268-0.132-0.18-0.229-0.393-0.291-0.64-0.062-0.24-0.098-0.485-0.105-0.737-0.014-0.259-0.02-0.473-0.016-0.643v0c0.013-0.571 0.074-1.134 0.183-1.69 0.101-0.556 0.216-1.107 0.345-1.656v0c0.068-0.284 0.157-0.622 0.268-1.014 0.111-0.385 0.243-0.784 0.396-1.195 0.159-0.411 0.339-0.819 0.538-1.222 0.207-0.403 0.44-0.762 0.699-1.076 0.259-0.314 0.551-0.565 0.875-0.755 0.324-0.197 0.68-0.29 1.068-0.281v0c0.381 0.009 0.712 0.102 0.994 0.278 0.275 0.177 0.514 0.407 0.718 0.691 0.204 0.291 0.37 0.614 0.498 0.971 0.135 0.357 0.245 0.72 0.332 1.089 0.087 0.369 0.156 0.728 0.209 1.077 0.06 0.355 0.11 0.669 0.152 0.942v0c0.121 0.649 0.218 1.308 0.29 1.976 0.073 0.668 0.101 1.339 0.086 2.013zM89.324 173.928l0.011-0.438c0.003-0.122 0.001-0.32-0.007-0.592-0.014-0.279-0.041-0.555-0.083-0.829-0.041-0.28-0.114-0.527-0.217-0.74-0.097-0.22-0.237-0.332-0.421-0.336v0c-0.102-0.002-0.199 0.063-0.29 0.197-0.092 0.134-0.174 0.302-0.247 0.505-0.08 0.202-0.149 0.429-0.209 0.678-0.06 0.25-0.114 0.491-0.16 0.721-0.046 0.23-0.082 0.437-0.107 0.62-0.025 0.183-0.041 0.315-0.05 0.397v0c0.6-0.04 1.193-0.101 1.78-0.183z" fill="#ffffff" data-fill-palette-color="primary"></path><path d="M101.105 170.769v0c0.062 0.691-0.041 1.325-0.31 1.902-0.269 0.577-0.649 1.1-1.14 1.568v0c0.177 0.223 0.365 0.486 0.563 0.789 0.198 0.303 0.381 0.628 0.549 0.975 0.167 0.34 0.311 0.682 0.431 1.027 0.114 0.352 0.184 0.677 0.211 0.975v0c0.029 0.318-0.024 0.61-0.157 0.874-0.126 0.271-0.375 0.423-0.748 0.457v0c-0.312 0.028-0.593-0.097-0.843-0.375-0.25-0.278-0.483-0.619-0.697-1.023-0.213-0.397-0.41-0.803-0.591-1.217-0.181-0.414-0.347-0.747-0.5-1v0c-0.177 0.077-0.347 0.161-0.51 0.251-0.163 0.09-0.329 0.18-0.498 0.27v0c0.006 0.218 0.013 0.521 0.021 0.91 0.014 0.381-0.006 0.765-0.06 1.153-0.047 0.387-0.142 0.73-0.286 1.03-0.144 0.293-0.369 0.453-0.674 0.48v0c-0.325 0.029-0.591-0.083-0.799-0.337-0.201-0.255-0.355-0.562-0.462-0.922-0.108-0.366-0.186-0.738-0.234-1.116-0.042-0.386-0.072-0.69-0.092-0.913v0c-0.042-0.467-0.074-0.929-0.094-1.385-0.021-0.456-0.052-0.917-0.095-1.385v0c-0.038-0.427-0.087-0.856-0.146-1.287-0.052-0.426-0.098-0.859-0.138-1.299v0c-0.009-0.102-0.02-0.227-0.034-0.376-0.014-0.156-0.022-0.319-0.024-0.49 0.006-0.164 0.012-0.322 0.019-0.473 0-0.15 0.023-0.272 0.07-0.365v0c0.083-0.219 0.292-0.439 0.627-0.66 0.335-0.221 0.709-0.426 1.122-0.614 0.407-0.18 0.81-0.329 1.21-0.447 0.399-0.125 0.696-0.196 0.892-0.214v0c0.508-0.046 0.967 0.008 1.377 0.163 0.403 0.155 0.748 0.383 1.035 0.685 0.294 0.301 0.524 0.656 0.691 1.065 0.167 0.415 0.272 0.856 0.314 1.324zM98.36 171.231v0c-0.024-0.264-0.102-0.455-0.236-0.572-0.134-0.124-0.337-0.175-0.608-0.151v0c-0.196 0.018-0.393 0.07-0.59 0.156-0.197 0.086-0.376 0.184-0.537 0.294v0c0.105 0.783 0.189 1.564 0.252 2.344v0c0.204-0.087 0.409-0.197 0.616-0.332 0.214-0.129 0.405-0.279 0.574-0.451 0.168-0.179 0.304-0.372 0.408-0.58 0.104-0.214 0.144-0.45 0.121-0.708z" fill="#ffffff" data-fill-palette-color="primary"></path><path d="M108.876 167.138v0c0.071 0.353 0.107 0.756 0.107 1.206 0.002 0.458-0.019 0.926-0.061 1.407-0.044 0.474-0.099 0.943-0.165 1.407-0.068 0.458-0.124 0.868-0.169 1.23v0c-0.036 0.236-0.069 0.52-0.099 0.853-0.029 0.339-0.072 0.698-0.127 1.076-0.049 0.378-0.111 0.758-0.188 1.141-0.076 0.383-0.176 0.732-0.299 1.049-0.117 0.315-0.264 0.584-0.442 0.806-0.179 0.216-0.388 0.348-0.628 0.397v0c-0.207 0.042-0.426-0.012-0.656-0.16-0.231-0.148-0.462-0.348-0.693-0.599-0.224-0.253-0.449-0.545-0.675-0.874-0.226-0.329-0.433-0.655-0.623-0.978-0.195-0.315-0.362-0.611-0.501-0.888-0.146-0.276-0.254-0.49-0.326-0.642v0c-0.347-0.728-0.689-1.464-1.026-2.209-0.33-0.745-0.574-1.512-0.732-2.298v0c-0.039-0.193-0.07-0.399-0.093-0.616-0.023-0.217-0.015-0.42 0.024-0.609 0.044-0.196 0.128-0.366 0.251-0.508 0.117-0.141 0.303-0.238 0.556-0.288v0c0.22-0.044 0.444 0.036 0.673 0.239 0.228 0.204 0.455 0.485 0.679 0.842 0.223 0.351 0.445 0.75 0.667 1.198 0.215 0.449 0.422 0.89 0.619 1.322 0.206 0.437 0.395 0.843 0.567 1.218 0.18 0.38 0.344 0.677 0.491 0.89v0c0.021-0.205 0.05-0.51 0.088-0.912 0.032-0.395 0.079-0.834 0.141-1.319 0.062-0.484 0.136-0.981 0.221-1.491 0.09-0.518 0.197-0.99 0.319-1.417 0.122-0.427 0.266-0.785 0.429-1.074 0.171-0.291 0.369-0.459 0.596-0.505v0c0.167-0.033 0.311-0.021 0.434 0.038 0.123 0.059 0.227 0.145 0.313 0.26 0.085 0.115 0.156 0.243 0.212 0.384 0.049 0.143 0.088 0.284 0.116 0.424z" fill="#ffffff" data-fill-palette-color="primary"></path><path d="M117.958 172.312v0c0.055 0.182 0.063 0.372 0.023 0.569v0c-0.048 0.192-0.218 0.454-0.508 0.783-0.284 0.328-0.612 0.655-0.982 0.981-0.377 0.328-0.742 0.623-1.095 0.887-0.362 0.259-0.641 0.418-0.836 0.478v0c-0.13 0.04-0.295 0.058-0.496 0.054-0.202-0.01-0.409-0.036-0.62-0.078-0.21-0.036-0.409-0.096-0.599-0.181-0.187-0.078-0.33-0.163-0.429-0.253v0c-0.061-0.06-0.138-0.186-0.232-0.378-0.1-0.19-0.201-0.415-0.301-0.676-0.107-0.259-0.217-0.538-0.329-0.838-0.11-0.293-0.214-0.575-0.31-0.845-0.096-0.269-0.179-0.507-0.249-0.713-0.072-0.213-0.121-0.365-0.149-0.456v0c-0.109-0.358-0.22-0.772-0.334-1.242-0.112-0.464-0.207-0.939-0.284-1.428-0.075-0.482-0.113-0.957-0.114-1.426 0.002-0.463 0.068-0.877 0.199-1.244v0c0.039-0.104 0.145-0.236 0.317-0.395 0.172-0.159 0.382-0.322 0.63-0.49 0.248-0.168 0.519-0.339 0.814-0.513 0.289-0.173 0.572-0.33 0.849-0.471 0.277-0.141 0.531-0.264 0.762-0.37 0.231-0.106 0.408-0.177 0.531-0.215v0c0.143-0.043 0.289-0.056 0.437-0.037 0.15 0.026 0.286 0.077 0.409 0.153 0.123 0.076 0.23 0.172 0.322 0.287 0.092 0.114 0.159 0.243 0.202 0.386v0c0.038 0.124 0.054 0.236 0.049 0.337-0.007 0.094-0.03 0.205-0.07 0.33v0c-0.054 0.151-0.207 0.361-0.459 0.63-0.261 0.264-0.545 0.535-0.852 0.813-0.307 0.278-0.606 0.532-0.898 0.764-0.29 0.237-0.492 0.405-0.604 0.503v0c0.028 0.233 0.053 0.467 0.074 0.702 0.03 0.24 0.07 0.476 0.12 0.71v0c0.247-0.239 0.539-0.484 0.875-0.735 0.329-0.249 0.663-0.425 1.002-0.528v0c0.677-0.206 1.118 0.03 1.324 0.707v0c0.049 0.163 0.064 0.315 0.042 0.457-0.028 0.143-0.075 0.279-0.143 0.406-0.076 0.123-0.169 0.24-0.278 0.35-0.108 0.111-0.214 0.221-0.315 0.331v0c-0.257 0.256-0.533 0.492-0.829 0.71-0.301 0.226-0.604 0.446-0.909 0.66v0c0.011 0.082 0.02 0.172 0.028 0.268 0.008 0.097 0.025 0.188 0.051 0.273v0c0.041 0.137 0.093 0.27 0.154 0.401 0.059 0.124 0.116 0.253 0.17 0.386v0c0.105-0.075 0.272-0.193 0.5-0.355 0.226-0.168 0.466-0.337 0.721-0.507 0.254-0.17 0.498-0.325 0.732-0.467 0.243-0.138 0.426-0.225 0.549-0.263v0c0.143-0.043 0.289-0.056 0.437-0.037 0.143 0.028 0.272 0.077 0.387 0.15 0.116 0.078 0.22 0.175 0.311 0.289 0.094 0.121 0.161 0.25 0.203 0.386z" fill="#ffffff" data-fill-palette-color="primary"></path><path d="M126.394 169.139v0c0.097 0.232 0.094 0.488-0.01 0.768-0.11 0.282-0.277 0.57-0.5 0.863-0.233 0.289-0.508 0.575-0.825 0.855-0.317 0.281-0.64 0.541-0.967 0.782-0.321 0.238-0.63 0.449-0.929 0.633-0.301 0.178-0.543 0.305-0.725 0.382v0c-0.176 0.074-0.37 0.137-0.584 0.19-0.208 0.05-0.401 0.047-0.58-0.011v0c-0.099-0.025-0.217-0.123-0.356-0.293-0.138-0.171-0.289-0.38-0.452-0.629-0.161-0.242-0.326-0.512-0.495-0.811-0.167-0.292-0.321-0.581-0.464-0.867-0.149-0.284-0.282-0.549-0.4-0.795-0.118-0.246-0.206-0.437-0.263-0.575v0c-0.097-0.232-0.208-0.514-0.333-0.845-0.124-0.331-0.25-0.692-0.376-1.082-0.133-0.387-0.258-0.781-0.375-1.181-0.113-0.41-0.215-0.802-0.306-1.178-0.082-0.371-0.137-0.713-0.165-1.026-0.028-0.313-0.025-0.569 0.01-0.767v0c0.07-0.325 0.24-0.543 0.51-0.657v0c0.182-0.076 0.365-0.079 0.549-0.009 0.178 0.073 0.349 0.189 0.512 0.349 0.16 0.169 0.313 0.367 0.459 0.593 0.147 0.226 0.279 0.454 0.398 0.685 0.121 0.237 0.224 0.455 0.309 0.656 0.087 0.207 0.155 0.37 0.205 0.489v0c0.303 0.721 0.583 1.441 0.84 2.159 0.266 0.722 0.551 1.443 0.854 2.165v0l0.225 0.536c0.368-0.302 0.771-0.615 1.21-0.939 0.442-0.318 0.882-0.57 1.321-0.754v0c0.157-0.066 0.321-0.124 0.492-0.173 0.171-0.05 0.331-0.073 0.48-0.069 0.152 0.01 0.289 0.056 0.411 0.137 0.132 0.085 0.238 0.225 0.32 0.419z" fill="#ffffff" data-fill-palette-color="primary"></path><path d="M137.05 159.187v0c0.217 0.345 0.425 0.713 0.622 1.104 0.201 0.396 0.367 0.794 0.498 1.193 0.137 0.396 0.228 0.797 0.274 1.202 0.046 0.405 0.026 0.795-0.059 1.17-0.082 0.381-0.242 0.739-0.481 1.075-0.235 0.341-0.569 0.647-1.001 0.919v0c-0.633 0.398-1.28 0.597-1.941 0.594-0.657 0.003-1.286-0.127-1.886-0.392-0.61-0.267-1.169-0.638-1.678-1.114-0.518-0.478-0.952-0.996-1.303-1.555v0c-0.036-0.058-0.071-0.112-0.104-0.164-0.033-0.052-0.056-0.101-0.069-0.149v0c-0.107-0.182-0.244-0.433-0.413-0.752-0.169-0.32-0.341-0.669-0.516-1.05-0.166-0.378-0.322-0.774-0.47-1.187-0.151-0.419-0.251-0.814-0.3-1.186-0.049-0.371-0.039-0.707 0.029-1.007 0.07-0.31 0.232-0.544 0.486-0.703v0c0.184-0.116 0.376-0.156 0.575-0.121 0.201 0.026 0.393 0.094 0.575 0.205 0.186 0.116 0.351 0.257 0.495 0.424 0.15 0.162 0.273 0.319 0.367 0.468v0c0.145 0.23 0.267 0.475 0.366 0.734 0.102 0.265 0.206 0.525 0.311 0.781v0c0.159 0.406 0.333 0.803 0.52 1.191 0.186 0.397 0.398 0.786 0.638 1.166v0c0.123 0.196 0.283 0.425 0.48 0.687 0.201 0.268 0.423 0.506 0.666 0.714 0.249 0.205 0.51 0.35 0.781 0.436 0.273 0.077 0.546 0.03 0.816-0.139v0c0.259-0.163 0.413-0.384 0.462-0.665 0.043-0.276 0.026-0.559-0.051-0.848-0.081-0.295-0.195-0.584-0.343-0.869-0.147-0.285-0.282-0.525-0.405-0.721v0c-0.351-0.558-0.745-1.082-1.182-1.571-0.446-0.491-0.914-0.96-1.403-1.407v0c-0.137-0.115-0.265-0.235-0.384-0.361-0.119-0.126-0.224-0.261-0.315-0.405v0c-0.149-0.236-0.21-0.487-0.184-0.752 0.032-0.269 0.174-0.483 0.427-0.643v0c0.213-0.134 0.461-0.174 0.745-0.119 0.286 0.045 0.586 0.158 0.9 0.338 0.311 0.174 0.626 0.394 0.945 0.659 0.31 0.263 0.606 0.535 0.887 0.816 0.287 0.277 0.54 0.552 0.759 0.824 0.229 0.274 0.404 0.501 0.526 0.682v0c0.066 0.079 0.124 0.159 0.175 0.239 0.051 0.081 0.105 0.167 0.163 0.259z" fill="#ffffff" data-fill-palette-color="primary"></path><path d="M144.523 151.628v0c0.138 0.168 0.328 0.417 0.572 0.745 0.243 0.329 0.496 0.697 0.76 1.105 0.263 0.418 0.517 0.851 0.763 1.3 0.24 0.454 0.429 0.893 0.566 1.318 0.138 0.415 0.201 0.798 0.19 1.15-0.011 0.352-0.14 0.629-0.387 0.831v0c-0.231 0.19-0.498 0.299-0.8 0.327-0.307 0.023-0.618-0.003-0.935-0.078-0.317-0.065-0.627-0.164-0.928-0.295-0.301-0.131-0.567-0.257-0.796-0.376v0c-0.486-0.261-0.969-0.516-1.447-0.767-0.478-0.25-0.952-0.512-1.423-0.786v0l0.266 0.324c0.272 0.331 0.543 0.663 0.815 0.994 0.266 0.336 0.507 0.683 0.723 1.043v0c0.092 0.144 0.201 0.315 0.326 0.511 0.127 0.187 0.238 0.381 0.334 0.584 0.105 0.204 0.182 0.409 0.229 0.617 0.047 0.208 0.038 0.395-0.027 0.563v0c-0.043 0.097-0.09 0.175-0.139 0.232-0.054 0.053-0.108 0.115-0.164 0.187v0l-0.039 0.032c-0.174 0.142-0.373 0.205-0.599 0.188-0.225-0.018-0.458-0.086-0.697-0.207-0.239-0.12-0.482-0.277-0.729-0.471-0.241-0.198-0.468-0.399-0.68-0.604-0.216-0.21-0.407-0.405-0.572-0.586-0.165-0.19-0.295-0.343-0.39-0.459v0c-0.147-0.179-0.354-0.448-0.623-0.808-0.265-0.355-0.546-0.762-0.843-1.222-0.288-0.459-0.574-0.941-0.857-1.448-0.278-0.511-0.5-1.002-0.666-1.472-0.162-0.466-0.245-0.889-0.251-1.272-0.001-0.377 0.124-0.669 0.376-0.876v0c0.237-0.194 0.525-0.277 0.866-0.248 0.34 0.029 0.69 0.112 1.048 0.249 0.359 0.137 0.705 0.302 1.039 0.494 0.328 0.197 0.602 0.359 0.821 0.487v0c0.429 0.255 0.855 0.512 1.28 0.772 0.414 0.259 0.832 0.527 1.254 0.806v0c0.023 0.007 0.074 0.036 0.151 0.088 0.087 0.052 0.178 0.109 0.273 0.172v0c0.105 0.064 0.228 0.134 0.37 0.21v0c-0.082-0.1-0.143-0.169-0.182-0.206-0.035-0.042-0.065-0.079-0.091-0.111-0.03-0.037-0.067-0.082-0.11-0.134-0.047-0.058-0.119-0.145-0.213-0.26v0c-0.217-0.244-0.435-0.493-0.651-0.746-0.211-0.258-0.418-0.51-0.621-0.758v0c-0.086-0.105-0.209-0.255-0.369-0.449-0.154-0.199-0.311-0.418-0.471-0.656-0.16-0.238-0.314-0.485-0.463-0.742-0.144-0.251-0.255-0.499-0.333-0.743-0.077-0.244-0.105-0.472-0.084-0.683 0.016-0.206 0.105-0.376 0.268-0.51v0c0.195-0.16 0.421-0.222 0.678-0.186 0.263 0.031 0.534 0.125 0.813 0.283 0.28 0.149 0.563 0.343 0.848 0.584 0.291 0.237 0.562 0.476 0.813 0.719 0.256 0.248 0.481 0.485 0.676 0.712 0.2 0.223 0.354 0.4 0.463 0.532z" fill="#ffffff" data-fill-palette-color="primary"></path><path d="M146.664 144.081v0c0.137 0.133 0.228 0.283 0.273 0.451 0.05 0.163 0.062 0.331 0.036 0.505-0.017 0.173-0.06 0.345-0.13 0.514-0.065 0.174-0.145 0.329-0.239 0.465v0c0.795 0.802 1.547 1.595 2.255 2.378 0.713 0.779 1.422 1.611 2.126 2.496v0l0.065-0.065c0.114-0.117 0.235-0.217 0.363-0.301 0.133-0.088 0.277-0.148 0.431-0.179 0.144-0.031 0.286-0.03 0.425 0.001 0.145 0.036 0.281 0.116 0.408 0.24v0c0.166 0.161 0.26 0.352 0.282 0.573 0.018 0.226-0.01 0.464-0.084 0.716-0.078 0.256-0.188 0.515-0.328 0.776-0.15 0.262-0.31 0.514-0.481 0.757-0.17 0.243-0.338 0.464-0.503 0.664-0.17 0.195-0.313 0.351-0.426 0.467v0c-0.081 0.083-0.185 0.185-0.314 0.308-0.128 0.122-0.266 0.22-0.414 0.294-0.143 0.079-0.289 0.122-0.438 0.129-0.149 0.007-0.284-0.049-0.407-0.168v0c-0.151-0.147-0.257-0.307-0.316-0.479-0.055-0.177-0.08-0.362-0.073-0.555-0.003-0.192 0.031-0.378 0.101-0.557 0.065-0.184 0.144-0.353 0.238-0.508v0c-0.343-0.438-0.69-0.866-1.042-1.284-0.352-0.428-0.721-0.844-1.107-1.248v0c-0.395-0.413-0.786-0.821-1.171-1.225-0.386-0.404-0.771-0.807-1.157-1.21v0c-0.043 0.053-0.083 0.105-0.121 0.153-0.038 0.049-0.073 0.09-0.106 0.124v0c-0.1 0.102-0.218 0.2-0.357 0.294-0.129 0.093-0.269 0.165-0.423 0.215-0.148 0.045-0.295 0.064-0.439 0.056-0.144-0.008-0.28-0.073-0.407-0.196v0c-0.244-0.237-0.344-0.534-0.3-0.891 0.043-0.357 0.158-0.719 0.345-1.087 0.187-0.368 0.409-0.713 0.664-1.033 0.255-0.331 0.471-0.586 0.646-0.767v0c0.095-0.098 0.23-0.222 0.406-0.373 0.176-0.152 0.366-0.284 0.572-0.398 0.21-0.109 0.416-0.184 0.618-0.225 0.202-0.032 0.378 0.026 0.529 0.173z" fill="#ffffff" data-fill-palette-color="primary"></path><path d="M151.867 138.14v0c0.279 0.228 0.562 0.516 0.849 0.864 0.292 0.352 0.574 0.727 0.846 1.125 0.267 0.393 0.523 0.791 0.766 1.191 0.238 0.396 0.455 0.749 0.652 1.058v0c0.122 0.205 0.277 0.446 0.464 0.722 0.193 0.28 0.388 0.584 0.586 0.912 0.202 0.323 0.395 0.656 0.58 1 0.185 0.344 0.33 0.677 0.435 1 0.11 0.318 0.167 0.619 0.172 0.903-0.001 0.28-0.078 0.516-0.233 0.706v0c-0.133 0.163-0.336 0.261-0.609 0.293-0.272 0.032-0.578 0.025-0.916-0.023-0.334-0.053-0.693-0.135-1.076-0.246-0.384-0.111-0.751-0.231-1.103-0.359-0.35-0.119-0.667-0.242-0.951-0.368-0.288-0.121-0.508-0.217-0.66-0.288v0c-0.731-0.342-1.463-0.693-2.195-1.054-0.728-0.366-1.404-0.803-2.026-1.31v0c-0.153-0.125-0.307-0.264-0.463-0.417-0.156-0.153-0.279-0.315-0.368-0.485-0.091-0.179-0.134-0.364-0.128-0.552 0.001-0.184 0.083-0.376 0.246-0.576v0c0.142-0.174 0.366-0.255 0.671-0.242 0.306 0.012 0.659 0.085 1.059 0.218 0.395 0.129 0.82 0.296 1.277 0.502 0.452 0.21 0.891 0.42 1.318 0.627 0.437 0.207 0.841 0.401 1.212 0.581 0.381 0.179 0.696 0.304 0.944 0.375v0c-0.114-0.172-0.285-0.426-0.512-0.76-0.226-0.325-0.469-0.694-0.729-1.108-0.26-0.414-0.518-0.844-0.776-1.292-0.259-0.457-0.477-0.889-0.654-1.297-0.177-0.407-0.294-0.775-0.351-1.102-0.053-0.333-0.007-0.589 0.14-0.769v0c0.107-0.132 0.227-0.214 0.359-0.246 0.132-0.033 0.267-0.032 0.406 0.002 0.139 0.034 0.275 0.088 0.408 0.161 0.129 0.079 0.249 0.163 0.36 0.254z" fill="#ffffff" data-fill-palette-color="primary"></path><path d="M162.168 136.368v0c0.158 0.106 0.285 0.247 0.38 0.424v0c0.085 0.179 0.12 0.489 0.104 0.928-0.011 0.434-0.056 0.894-0.135 1.381-0.083 0.492-0.177 0.953-0.283 1.381-0.115 0.43-0.229 0.73-0.342 0.9v0c-0.075 0.113-0.191 0.232-0.348 0.357-0.162 0.121-0.339 0.232-0.529 0.334-0.185 0.106-0.377 0.186-0.577 0.24-0.194 0.059-0.358 0.084-0.493 0.077v0c-0.085-0.008-0.225-0.056-0.419-0.144-0.198-0.083-0.419-0.193-0.662-0.331-0.247-0.132-0.509-0.278-0.787-0.439-0.272-0.157-0.53-0.308-0.775-0.455-0.245-0.147-0.46-0.278-0.645-0.393-0.191-0.119-0.325-0.205-0.405-0.258v0c-0.311-0.207-0.66-0.456-1.047-0.747-0.381-0.287-0.757-0.594-1.126-0.922-0.364-0.324-0.695-0.668-0.994-1.03-0.292-0.358-0.505-0.721-0.637-1.086v0c-0.036-0.106-0.038-0.274-0.006-0.507 0.032-0.232 0.09-0.491 0.176-0.778 0.085-0.287 0.186-0.591 0.302-0.914 0.113-0.317 0.232-0.618 0.357-0.903 0.124-0.285 0.242-0.541 0.353-0.769 0.111-0.228 0.203-0.396 0.275-0.504v0c0.083-0.125 0.188-0.226 0.314-0.306 0.132-0.075 0.27-0.123 0.413-0.141 0.143-0.019 0.287-0.013 0.43 0.016 0.143 0.03 0.277 0.087 0.402 0.17v0c0.108 0.072 0.192 0.148 0.252 0.229 0.055 0.077 0.107 0.177 0.155 0.3v0c0.055 0.151 0.07 0.41 0.046 0.778-0.034 0.37-0.081 0.759-0.141 1.169-0.06 0.409-0.13 0.796-0.21 1.16-0.073 0.368-0.122 0.625-0.147 0.773v0c0.17 0.162 0.338 0.327 0.504 0.495 0.175 0.166 0.357 0.323 0.544 0.472v0c0.04-0.341 0.109-0.716 0.209-1.123 0.096-0.402 0.242-0.75 0.438-1.044v0c0.392-0.589 0.883-0.687 1.472-0.295v0c0.141 0.094 0.249 0.203 0.322 0.326 0.07 0.128 0.119 0.263 0.147 0.404 0.019 0.143 0.022 0.292 0.009 0.447-0.013 0.155-0.024 0.307-0.034 0.456v0c-0.036 0.36-0.099 0.719-0.189 1.075-0.089 0.366-0.183 0.728-0.283 1.087v0c0.06 0.057 0.125 0.12 0.192 0.189 0.068 0.07 0.139 0.129 0.213 0.179v0c0.119 0.079 0.243 0.15 0.373 0.212 0.125 0.058 0.25 0.122 0.377 0.189v0c0.034-0.125 0.088-0.322 0.161-0.591 0.068-0.274 0.146-0.557 0.235-0.849 0.089-0.292 0.178-0.568 0.268-0.826 0.1-0.26 0.186-0.444 0.258-0.552v0c0.083-0.125 0.188-0.226 0.314-0.306 0.128-0.07 0.259-0.113 0.393-0.13 0.14-0.013 0.281-0.005 0.424 0.025 0.149 0.034 0.283 0.09 0.402 0.17z" fill="#ffffff" data-fill-palette-color="primary"></path><path d="M161.576 125.693v0c0.614 0.323 1.09 0.754 1.429 1.294 0.339 0.539 0.571 1.142 0.697 1.808v0c0.284-0.028 0.606-0.042 0.969-0.044 0.362-0.002 0.734 0.021 1.117 0.069 0.376 0.044 0.742 0.11 1.095 0.196 0.357 0.096 0.668 0.213 0.933 0.352v0c0.283 0.149 0.499 0.351 0.649 0.607 0.159 0.253 0.151 0.545-0.022 0.876v0c-0.146 0.277-0.403 0.445-0.773 0.504-0.369 0.059-0.782 0.069-1.238 0.029-0.45-0.037-0.897-0.092-1.342-0.165-0.446-0.073-0.816-0.114-1.111-0.123v0c-0.031 0.191-0.054 0.379-0.067 0.564-0.013 0.185-0.028 0.374-0.044 0.565v0c0.186 0.113 0.445 0.272 0.775 0.477 0.328 0.195 0.639 0.421 0.936 0.677 0.299 0.25 0.535 0.516 0.709 0.8 0.168 0.28 0.18 0.556 0.037 0.827v0c-0.152 0.289-0.391 0.451-0.717 0.487-0.323 0.03-0.665-0.008-1.025-0.113-0.366-0.108-0.721-0.245-1.064-0.41-0.346-0.175-0.619-0.314-0.817-0.418v0c-0.415-0.219-0.82-0.443-1.214-0.674-0.394-0.23-0.798-0.455-1.213-0.673v0c-0.379-0.2-0.766-0.392-1.161-0.576-0.386-0.188-0.774-0.384-1.165-0.59v0c-0.09-0.048-0.202-0.106-0.335-0.176-0.138-0.073-0.28-0.155-0.423-0.246-0.135-0.094-0.264-0.185-0.387-0.273-0.126-0.082-0.216-0.167-0.269-0.257v0c-0.139-0.188-0.211-0.484-0.214-0.885-0.004-0.402 0.028-0.827 0.095-1.276 0.07-0.44 0.164-0.859 0.282-1.258 0.112-0.402 0.214-0.691 0.305-0.865v0c0.238-0.451 0.532-0.807 0.885-1.068 0.349-0.254 0.728-0.42 1.137-0.497 0.412-0.083 0.835-0.083 1.269-0.001 0.439 0.085 0.867 0.237 1.282 0.456zM160.473 128.248v0c-0.235-0.124-0.438-0.161-0.609-0.113-0.177 0.045-0.329 0.188-0.456 0.429v0c-0.092 0.175-0.155 0.368-0.19 0.58-0.035 0.212-0.05 0.416-0.045 0.611v0c0.714 0.337 1.416 0.691 2.105 1.061v0c0.038-0.218 0.057-0.451 0.056-0.697 0.008-0.249-0.014-0.492-0.067-0.727-0.059-0.239-0.147-0.458-0.265-0.658-0.124-0.203-0.3-0.365-0.529-0.486z" fill="#ffffff" data-fill-palette-color="primary"></path><path d="M161.436 119.085v0c0.214 0.088 0.372 0.23 0.475 0.427 0.1 0.203 0.163 0.416 0.189 0.64v0c0.031 0.211 0.07 0.429 0.117 0.655 0.041 0.223 0.104 0.436 0.189 0.64 0.083 0.21 0.193 0.399 0.33 0.566 0.14 0.16 0.32 0.286 0.541 0.376v0c0.195 0.08 0.389 0.108 0.582 0.085 0.196-0.03 0.397-0.08 0.602-0.149 0.214-0.074 0.437-0.159 0.668-0.256 0.222-0.093 0.462-0.167 0.72-0.222 0.256-0.049 0.525-0.071 0.81-0.065 0.29 0.009 0.602 0.082 0.936 0.219v0c0.233 0.096 0.473 0.253 0.721 0.473 0.257 0.216 0.498 0.469 0.724 0.761 0.228 0.285 0.433 0.601 0.615 0.947 0.184 0.34 0.334 0.681 0.45 1.024 0.114 0.348 0.181 0.688 0.199 1.019 0.018 0.331-0.025 0.626-0.131 0.884v0c-0.119 0.289-0.302 0.512-0.55 0.667-0.25 0.162-0.533 0.178-0.848 0.049v0c-0.214-0.088-0.387-0.222-0.519-0.401-0.141-0.176-0.267-0.371-0.377-0.585-0.102-0.218-0.193-0.451-0.276-0.698-0.085-0.241-0.175-0.469-0.27-0.684-0.098-0.209-0.21-0.402-0.336-0.579-0.135-0.173-0.3-0.3-0.494-0.38v0c-0.264-0.109-0.577-0.127-0.938-0.054-0.361 0.072-0.74 0.163-1.137 0.271-0.398 0.109-0.793 0.193-1.185 0.253-0.395 0.066-0.756 0.031-1.083-0.103v0c-0.396-0.163-0.771-0.442-1.123-0.837-0.353-0.395-0.643-0.834-0.871-1.317-0.228-0.483-0.378-0.986-0.45-1.509-0.068-0.513-0.019-0.975 0.15-1.383v0c0.132-0.321 0.343-0.558 0.633-0.711 0.291-0.153 0.603-0.16 0.937-0.023z" fill="#ffffff" data-fill-palette-color="primary"></path><path d="M171.52 114.394v0c0.182 0.057 0.343 0.158 0.482 0.302v0c0.132 0.148 0.252 0.436 0.361 0.861 0.111 0.42 0.196 0.874 0.256 1.364 0.058 0.496 0.096 0.964 0.115 1.405 0.01 0.445-0.016 0.765-0.077 0.96v0c-0.041 0.13-0.119 0.276-0.234 0.439-0.122 0.161-0.26 0.318-0.415 0.469-0.148 0.153-0.31 0.284-0.487 0.393-0.17 0.111-0.321 0.181-0.451 0.211v0c-0.084 0.017-0.231 0.009-0.442-0.021-0.213-0.024-0.456-0.068-0.729-0.133-0.274-0.058-0.567-0.125-0.878-0.201-0.305-0.074-0.595-0.148-0.872-0.22-0.277-0.073-0.52-0.138-0.729-0.197-0.216-0.061-0.37-0.105-0.461-0.134v0c-0.357-0.112-0.762-0.253-1.214-0.424-0.446-0.169-0.893-0.359-1.339-0.571-0.44-0.21-0.854-0.447-1.242-0.71-0.381-0.262-0.686-0.551-0.916-0.865v0c-0.064-0.091-0.113-0.253-0.147-0.485-0.034-0.232-0.051-0.497-0.049-0.796 0.001-0.299 0.013-0.62 0.034-0.962 0.02-0.336 0.05-0.658 0.09-0.967 0.04-0.308 0.081-0.588 0.124-0.838 0.043-0.25 0.084-0.437 0.123-0.56v0c0.045-0.143 0.117-0.27 0.216-0.381 0.106-0.109 0.225-0.193 0.357-0.252 0.132-0.058 0.272-0.093 0.417-0.104 0.146-0.011 0.291 0.006 0.434 0.051v0c0.123 0.039 0.225 0.089 0.306 0.149 0.074 0.059 0.152 0.14 0.233 0.244v0c0.095 0.13 0.182 0.374 0.261 0.735 0.071 0.364 0.135 0.752 0.192 1.161 0.057 0.41 0.098 0.801 0.123 1.173 0.032 0.374 0.057 0.635 0.075 0.783v0c0.208 0.108 0.416 0.22 0.623 0.334 0.215 0.11 0.433 0.211 0.653 0.302v0c-0.058-0.339-0.095-0.718-0.113-1.137-0.02-0.413 0.023-0.788 0.129-1.126v0c0.212-0.675 0.655-0.906 1.33-0.694v0c0.162 0.051 0.296 0.125 0.401 0.222 0.103 0.104 0.188 0.219 0.254 0.347 0.058 0.132 0.103 0.275 0.134 0.427 0.031 0.152 0.062 0.301 0.095 0.447v0c0.066 0.356 0.106 0.718 0.119 1.085 0.017 0.376 0.028 0.75 0.032 1.123v0c0.074 0.037 0.153 0.08 0.238 0.128 0.085 0.048 0.169 0.085 0.254 0.112v0c0.136 0.043 0.276 0.076 0.418 0.099 0.136 0.021 0.274 0.047 0.414 0.077v0c-0.002-0.129-0.006-0.333-0.011-0.613-0.011-0.282-0.015-0.575-0.012-0.881 0.003-0.306 0.012-0.595 0.027-0.869 0.023-0.278 0.054-0.479 0.093-0.601v0c0.045-0.143 0.117-0.27 0.216-0.382 0.104-0.103 0.217-0.181 0.341-0.235 0.13-0.052 0.269-0.083 0.414-0.094 0.153-0.009 0.297 0.008 0.434 0.05z" fill="#ffffff" data-fill-palette-color="primary"></path><path d="M0.341 92.137c0-3.87 3.137-7.008 7.008-7.007 3.87 0 7.008 3.137 7.008 7.007 0 3.87-3.137 7.008-7.008 7.008-3.87 0-7.008-3.137-7.008-7.008z" fill="#ffffff" data-fill-palette-color="primary"></path><path d="M165.463 92.137c0-3.87 3.137-7.008 7.008-7.007 3.87 0 7.008 3.137 7.008 7.007 0 3.87-3.137 7.008-7.008 7.008-3.87 0-7.008-3.137-7.008-7.008z" fill="#ffffff" data-fill-palette-color="primary"></path></g></svg></g></svg></g></svg></g></svg></g></svg></g></svg></g><defs></defs></svg><rect width="320" height="360" fill="none" stroke="none" visibility="hidden"></rect></g></svg></g></svg>