<!-- icon666.com - MILLIONS vector ICONS FREE --><svg id="Layer_1" enable-background="new 0 0 512 512" viewBox="0 0 512 512" width="32" height="32" xmlns="http://www.w3.org/2000/svg" xmlns:xlink="http://www.w3.org/1999/xlink"><linearGradient id="SVGID_1_" gradientUnits="userSpaceOnUse" x1="22.987" x2="489.013" y1="489.013" y2="22.987"><stop offset="0" stop-color="#fcc60e"></stop><stop offset="1" stop-color="#e92e29"></stop></linearGradient><path d="m332.124 332.745c-24.244 24.244-56.478 37.596-90.764 37.596s-66.521-13.352-90.765-37.596c-50.047-50.047-50.047-131.48 0-181.528 50.048-50.047 131.48-50.047 181.528 0 50.048 50.048 50.048 131.481.001 181.528zm179.876-254.352v355.215c0 43.225-35.167 78.392-78.393 78.392h-355.214c-43.226 0-78.393-35.167-78.393-78.393v-355.214c0-43.226 35.167-78.393 78.393-78.393h355.215c43.225 0 78.392 35.167 78.392 78.393zm-92.591 323.425-62.096-61c51.042-59.796 48.306-150.047-8.218-206.571-59.405-59.406-156.064-59.404-215.47 0-59.404 59.405-59.404 156.064 0 215.469 28.777 28.777 67.038 44.625 107.735 44.625 36.704 0 71.425-12.896 98.996-36.537l62.234 61.136c2.336 2.295 5.373 3.439 8.408 3.439 3.107 0 6.212-1.199 8.562-3.59 4.645-4.728 4.578-12.326-.151-16.971z" fill="url(#SVGID_1_)"></path></svg>